<?xml version="1.0" encoding="utf-8"?>
<!-- Generator: Adobe Illustrator 19.1.0, SVG Export Plug-In . SVG Version: 6.00 Build 0)  -->
<svg version="1.1" xmlns="http://www.w3.org/2000/svg" xmlns:xlink="http://www.w3.org/1999/xlink" x="0px" y="0px"
	 viewBox="0 0 490 45" style="enable-background:new 0 0 490 45;" xml:space="preserve">
<style type="text/css">
	.st0{display:none;}
	.st1{display:inline;fill:#FFFFFF;}
	.st2{display:inline;fill:none;}
	.st3{display:inline;fill:#330000;}
	.st4{font-family:'HelveticaNeue-Thin';}
	.st5{font-size:30px;}
	.st6{letter-spacing:2;}
	.st7{display:inline;}
	.st8{fill:#FFFFFF;}
</style>
<g id="Layer_1" class="st0">
	<rect x="0" y="0" class="st1" width="490" height="45"/>
	<rect y="11.3" class="st2" width="490" height="51.7"/>
	<text transform="matrix(1 0 0 1 38.4971 32.7513)" class="st3 st4 st5 st6">work orders to assign</text>
</g>
<g id="Layer_1_copy" class="st0">
	<g class="st7">
		<path class="st8" d="M206.5,15.6c-0.5-0.7-1-1.3-1.6-1.7c-0.6-0.4-1.2-0.7-1.9-0.9c-0.6-0.2-1.3-0.6-1.9-0.7
			c-0.7-0.1-1.2-0.3-1.8-0.3H194v20h5.5c1,0,2-0.3,3-0.7c1-0.3,1.9-0.9,2.7-1.7c0.8-0.7,1.5-1.8,2-3c0.5-1.2,0.8-2.8,0.8-4.7
			c0-1.5-0.1-2.7-0.4-3.8C207.3,17.2,206.9,16.3,206.5,15.6z"/>
		<polygon class="st8" points="345.3,13 340.6,25 350,25 345.4,13 		"/>
		<path class="st8" d="M185.3,19.2c0.3-0.6,0.4-1.4,0.4-2.2c0-0.8-0.1-1.5-0.5-2.1c-0.3-0.6-0.7-1-1.2-1.4c-0.5-0.4-1.1-0.9-1.7-1
			c-0.7-0.2-1.4-0.5-2.1-0.5H173v10h7.2c0.8,0,1.5-0.2,2.2-0.4c0.7-0.2,1.2-0.5,1.7-0.9C184.6,20.3,185,19.8,185.3,19.2z"/>
		<path class="st8" d="M247.7,19.2c0.3-0.6,0.4-1.4,0.4-2.2c0-0.8-0.2-1.5-0.5-2.1c-0.3-0.6-0.7-1-1.2-1.4c-0.5-0.4-1.1-0.9-1.7-1
			c-0.7-0.2-1.4-0.5-2.1-0.5H235v10h7.7c0.8,0,1.5-0.2,2.2-0.4s1.2-0.5,1.7-0.9C247.1,20.3,247.4,19.8,247.7,19.2z"/>
		<path class="st8" d="M85.7,14.9c-0.8-0.9-1.7-1.6-2.8-2.2c-1.1-0.5-2.3-0.8-3.7-0.8s-2.7,0.3-3.8,0.8c-1.1,0.5-2,1.3-2.8,2.2
			c-0.8,0.9-1.3,2-1.7,3.2c-0.4,1.2-0.6,2.5-0.6,3.9c0,1.4,0.2,2.7,0.6,3.9c0.4,1.2,1,2.3,1.7,3.2c0.8,0.9,1.7,1.6,2.8,2.2
			c1.1,0.5,2.4,0.8,3.8,0.8s2.6-0.3,3.7-0.8c1.1-0.5,2-1.3,2.8-2.2c0.8-0.9,1.3-2,1.7-3.2c0.4-1.2,0.6-2.5,0.6-3.9
			c0-1.4-0.2-2.7-0.6-3.9C87,16.9,86.4,15.9,85.7,14.9z"/>
		<path class="st8" d="M0,0v45h490V0H0z M59.8,33h-1.5l-5.9-21h-0.1l-5.8,21h-1.5l-6.2-22h1.4l5.6,20h0.1l5.7-20h1.6L59,31h0.1
			l5.5-20H66L59.8,33z M88.7,26.4c-0.5,1.4-1.1,2.6-2,3.6c-0.9,1-1.9,1.8-3.2,2.4c-1.3,0.6-2.7,0.9-4.3,0.9s-3-0.3-4.3-0.9
			c-1.3-0.6-2.3-1.4-3.2-2.4c-0.9-1-1.5-2.2-2-3.6C69.2,25.1,69,23.6,69,22s0.2-3,0.7-4.4c0.5-1.4,1.1-2.6,2-3.6
			c0.9-1,1.9-1.8,3.2-2.4c1.3-0.6,2.7-0.9,4.3-0.9s3,0.3,4.3,0.9c1.3,0.6,2.3,1.4,3.2,2.4c0.9,1,1.5,2.2,2,3.6
			c0.5,1.4,0.7,2.8,0.7,4.4S89.1,25.1,88.7,26.4z M109,33c-0.3-1-0.4-1.2-0.5-1.9c0-0.7,0-1.4,0-2.1s0-1.5-0.1-2.2s-0.2-1.4-0.6-1.9
			c-0.3-0.6-0.8-1-1.5-1.4c-0.7-0.3-1.7-0.5-2.9-0.5H96v10h-2V11h9.4c0.9,0,1.8,0.3,2.6,0.5c0.8,0.2,1.5,0.6,2.2,1
			c0.6,0.4,1.1,1,1.5,1.7c0.3,0.7,0.5,1.6,0.5,2.6c0,1.4-0.2,2.7-1,3.7c-0.8,1-2.1,1.6-3.1,1.9v0.1c1,0.1,1.5,0.4,2.1,0.8
			c0.6,0.4,0.9,0.9,1.2,1.5c0.3,0.6,0.5,1.2,0.6,1.9c0.1,0.7,0.2,1.4,0.2,2.1c0,0.4,0,0.8,0,1.2s-0.1,0.8,0,1.1s0.1,0.8,0.1,1.1
			c0.1,0.3,0.2,0.9,0.3,0.9H109z M131,33l-9.6-11.7l-4.4,3.9V33h-1V11h1v12.7L130.4,11h1.7l-9.8,9.2L132.7,33H131z M165.5,26.4
			c-0.5,1.4-1.1,2.6-2,3.6c-0.9,1-1.9,1.8-3.2,2.4c-1.3,0.6-2.7,0.9-4.3,0.9s-3-0.3-4.3-0.9c-1.3-0.6-2.3-1.4-3.2-2.4
			c-0.9-1-1.5-2.2-2-3.6c-0.5-1.4-0.7-2.8-0.7-4.4s0.2-3,0.7-4.4c0.5-1.4,1.1-2.6,2-3.6c0.9-1,1.9-1.8,3.2-2.4
			c1.3-0.6,2.7-0.9,4.3-0.9s3,0.3,4.3,0.9c1.3,0.6,2.3,1.4,3.2,2.4c0.9,1,1.5,2.2,2,3.6c0.5,1.4,0.7,2.8,0.7,4.4
			S166,25.1,165.5,26.4z M185.8,33c-0.3-1-0.4-1.2-0.5-1.9c0-0.7,0-1.4,0-2.1s0-1.5-0.1-2.2s-0.2-1.4-0.6-1.9
			c-0.3-0.6-0.8-1-1.5-1.4c-0.7-0.3-1.7-0.5-2.9-0.5H173v10h-2V11h9.2c0.9,0,1.8,0.3,2.6,0.5c0.8,0.2,1.5,0.6,2.2,1
			c0.6,0.4,1.1,1,1.5,1.7c0.3,0.7,0.5,1.6,0.5,2.6c0,1.4-0.6,2.7-1.4,3.7c-0.8,1-1.6,1.6-3.6,1.9v0.1c1,0.1,2,0.4,2.5,0.8
			c0.6,0.4,1.1,0.9,1.4,1.5c0.3,0.6,0.7,1.2,0.8,1.9c0.1,0.7,0.3,1.4,0.3,2.1c0,0.4,0,0.8,0,1.2s-0.1,0.8-0.1,1.1s0,0.8,0.1,1.1
			c0.1,0.3,0.1,0.9,0.3,0.9H185.8z M208.8,26.3c-0.4,1.3-1,2.4-1.8,3.4c-0.8,1-1.9,1.8-3.1,2.4c-1.3,0.6-2.7,0.9-4.5,0.9H192V11h7.4
			c1.9,0,3.5,0.5,4.8,1.1s2.3,1.5,3,2.5c0.8,1,1.3,2.2,1.6,3.5c0.3,1.3,0.5,2.6,0.5,4C209.3,23.5,209.2,24.9,208.8,26.3z M229,33
			h-14V11h14v1h-13v9h12v1h-12v10h13V33z M248.3,33c-0.3-1-0.4-1.2-0.5-1.9c0-0.7,0-1.4,0-2.1s0-1.5-0.1-2.2
			c-0.1-0.7-0.2-1.4-0.6-1.9c-0.3-0.6-0.8-1-1.5-1.4c-0.7-0.3-1.7-0.5-2.9-0.5H235v10h-1V11h8.7c0.9,0,1.8,0.3,2.6,0.5
			s1.5,0.6,2.2,1c0.6,0.4,1.1,1,1.5,1.7c0.3,0.7,0.5,1.6,0.5,2.6c0,1.4-0.3,2.7-1.1,3.7c-0.8,1-2.3,1.6-3.3,1.9v0.1
			c1,0.1,1.7,0.4,2.3,0.8c0.6,0.4,1,0.9,1.2,1.5c0.3,0.6,0.4,1.2,0.5,1.9c0.1,0.7,0,1.4,0,2.1c0,0.4,0,0.8,0,1.2s0.1,0.8,0.1,1.1
			s0.1,0.8,0.2,1.1s0.2,0.9,0.4,0.9H248.3z M270,30.1c-0.5,0.8-1.1,1.4-1.8,1.9c-0.7,0.5-1.5,0.8-2.4,1s-1.7,0.3-2.6,0.3
			c-1.3,0-2.4-0.1-3.5-0.4c-1.1-0.3-2.1-0.7-2.9-1.3c-0.8-0.6-1.5-1.2-1.9-2.2s-0.7-2.3-0.7-3.3h1.3c-0.1,1,0.1,2,0.5,2.8
			c0.4,0.8,1,1.4,1.7,1.9c0.7,0.5,1.5,0.9,2.5,1.1c1,0.2,2,0.3,3,0.3c0.6,0,1.3-0.1,2.1-0.3c0.7-0.2,1.4-0.4,2-0.8s1.1-0.9,1.5-1.5
			s0.6-1.4,0.6-2.3c0-0.9-0.2-1.6-0.6-2.2s-1-1-1.7-1.4c-0.7-0.3-1.5-0.6-2.3-0.8c-0.9-0.2-1.8-0.4-2.7-0.6
			c-0.9-0.2-1.8-0.4-2.7-0.6c-0.9-0.2-1.7-0.6-2.3-1c-0.7-0.4-1.2-0.9-1.7-1.6c-0.4-0.6-0.6-1.5-0.6-2.5s0.2-1.9,0.6-2.6
			c0.4-0.7,1-1.3,1.7-1.8s1.5-0.8,2.3-1c0.9-0.2,1.7-0.3,2.5-0.3c1.1,0,2.2,0.1,3.1,0.4c1,0.3,1.8,0.6,2.5,1.2
			c0.7,0.5,1.3,1,1.8,1.8c0.4,0.8,0.7,1.8,0.8,2.8h-1.3c0,0-0.2-1.5-0.6-2.2c-0.4-0.7-0.8-1.1-1.4-1.6c-0.6-0.5-1.3-0.7-2.1-1
			s-1.7-0.3-2.7-0.3c-0.6,0-1.2,0.1-1.9,0.2c-0.7,0.1-1.3,0.4-1.9,0.7c-0.6,0.4-1.1,0.8-1.5,1.4c-0.4,0.6-0.6,1.3-0.6,2.2
			c0,0.9,0.2,1.6,0.6,2.1s1,1,1.7,1.3c0.7,0.3,1.5,0.6,2.3,0.8c0.9,0.2,1.8,0.4,2.7,0.6c0.9,0.2,1.8,0.4,2.7,0.6
			c0.9,0.3,1.7,0.6,2.3,1c0.7,0.4,1.2,1,1.7,1.7c0.4,0.7,0.6,1.6,0.6,2.6C270.7,28.4,270.5,29.3,270,30.1z M301,12h-8v21h-1V12h-8
			v-1h17V12z M321.9,26.4c-0.5,1.4-1.1,2.6-2,3.6c-0.9,1-1.9,1.8-3.2,2.4c-1.3,0.6-2.7,0.9-4.3,0.9c-1.6,0-3-0.3-4.3-0.9
			c-1.3-0.6-2.3-1.4-3.2-2.4c-0.9-1-1.5-2.2-2-3.6s-0.7-2.8-0.7-4.4s0.2-3,0.7-4.4c0.5-1.4,1.1-2.6,2-3.6s1.9-1.8,3.2-2.4
			c1.3-0.6,2.7-0.9,4.3-0.9c1.6,0,3,0.3,4.3,0.9c1.3,0.6,2.3,1.4,3.2,2.4s1.5,2.2,2,3.6c0.5,1.4,0.7,2.8,0.7,4.4
			S322.4,25.1,321.9,26.4z M353.1,33l-2.7-7h-10.3l-2.7,7H336l8.6-22h1.4l8.5,22H353.1z M373.4,30.1c-0.5,0.8-1.1,1.4-1.8,1.9
			c-0.7,0.5-1.5,0.8-2.4,1s-1.7,0.3-2.6,0.3c-1.3,0-2.4-0.1-3.5-0.4c-1.1-0.3-2.1-0.7-2.9-1.3c-0.8-0.6-1.5-1.2-1.9-2.2
			s-0.7-2.3-0.7-3.3h1.3c-0.1,1,0.1,2,0.5,2.8c0.4,0.8,1,1.4,1.7,1.9c0.7,0.5,1.5,0.9,2.5,1.1c1,0.2,2,0.3,3,0.3
			c0.6,0,1.3-0.1,2.1-0.3c0.7-0.2,1.4-0.4,2-0.8s1.1-0.9,1.5-1.5s0.6-1.4,0.6-2.3c0-0.9-0.2-1.6-0.6-2.2s-1-1-1.7-1.4
			c-0.7-0.3-1.5-0.6-2.3-0.8c-0.9-0.2-1.8-0.4-2.7-0.6c-0.9-0.2-1.8-0.4-2.7-0.6c-0.9-0.2-1.7-0.6-2.3-1c-0.7-0.4-1.2-0.9-1.7-1.6
			c-0.4-0.6-0.6-1.5-0.6-2.5s0.2-1.9,0.6-2.6c0.4-0.7,1-1.3,1.7-1.8s1.5-0.8,2.3-1c0.9-0.2,1.7-0.3,2.5-0.3c1.1,0,2.2,0.1,3.1,0.4
			c1,0.3,1.8,0.6,2.5,1.2c0.7,0.5,1.3,1,1.8,1.8c0.4,0.8,0.7,1.8,0.8,2.8h-1.3c0,0-0.2-1.5-0.6-2.2c-0.4-0.7-0.8-1.1-1.4-1.6
			c-0.6-0.5-1.3-0.7-2.1-1s-1.7-0.3-2.7-0.3c-0.6,0-1.2,0.1-1.9,0.2c-0.7,0.1-1.3,0.4-1.9,0.7c-0.6,0.4-1.1,0.8-1.5,1.4
			c-0.4,0.6-0.6,1.3-0.6,2.2c0,0.9,0.2,1.6,0.6,2.1s1,1,1.7,1.3c0.7,0.3,1.5,0.6,2.3,0.8c0.9,0.2,1.8,0.4,2.7,0.6
			c0.9,0.2,1.8,0.4,2.7,0.6c0.9,0.3,1.7,0.6,2.3,1c0.7,0.4,1.2,1,1.7,1.7c0.4,0.7,0.6,1.6,0.6,2.6C374.1,28.4,373.9,29.3,373.4,30.1
			z M394.6,30.1c-0.5,0.8-1.1,1.4-1.8,1.9c-0.7,0.5-1.5,0.8-2.4,1s-1.7,0.3-2.6,0.3c-1.3,0-2.4-0.1-3.5-0.4
			c-1.1-0.3-2.1-0.7-2.9-1.3c-0.8-0.6-1.5-1.2-1.9-2.2s-0.7-2.3-0.7-3.3h1.3c-0.1,1,0.1,2,0.5,2.8c0.4,0.8,1,1.4,1.7,1.9
			c0.7,0.5,1.5,0.9,2.5,1.1c1,0.2,2,0.3,3,0.3c0.6,0,1.3-0.1,2.1-0.3c0.7-0.2,1.4-0.4,2-0.8s1.1-0.9,1.5-1.5s0.6-1.4,0.6-2.3
			c0-0.9-0.2-1.6-0.6-2.2s-1-1-1.7-1.4c-0.7-0.3-1.5-0.6-2.3-0.8c-0.9-0.2-1.8-0.4-2.7-0.6c-0.9-0.2-1.8-0.4-2.7-0.6
			c-0.9-0.2-1.7-0.6-2.3-1c-0.7-0.4-1.2-0.9-1.7-1.6c-0.4-0.6-0.6-1.5-0.6-2.5s0.2-1.9,0.6-2.6c0.4-0.7,1-1.3,1.7-1.8s1.5-0.8,2.3-1
			c0.9-0.2,1.7-0.3,2.5-0.3c1.1,0,2.2,0.1,3.1,0.4c1,0.3,1.8,0.6,2.5,1.2c0.7,0.5,1.3,1,1.8,1.8c0.4,0.8,0.7,1.8,0.8,2.8h-1.3
			c0,0-0.2-1.5-0.6-2.2c-0.4-0.7-0.8-1.1-1.4-1.6c-0.6-0.5-1.3-0.7-2.1-1s-1.7-0.3-2.7-0.3c-0.6,0-1.2,0.1-1.9,0.2
			c-0.7,0.1-1.3,0.4-1.9,0.7c-0.6,0.4-1.1,0.8-1.5,1.4c-0.4,0.6-0.6,1.3-0.6,2.2c0,0.9,0.2,1.6,0.6,2.1s1,1,1.7,1.3
			c0.7,0.3,1.5,0.6,2.3,0.8c0.9,0.2,1.8,0.4,2.7,0.6c0.9,0.2,1.8,0.4,2.7,0.6c0.9,0.3,1.7,0.6,2.3,1c0.7,0.4,1.2,1,1.7,1.7
			c0.4,0.7,0.6,1.6,0.6,2.6C395.3,28.4,395,29.3,394.6,30.1z M402,33h-1V11h1V33z M427,33h-2v-5h0.3c-0.3,1-0.7,1.6-1.2,2.2
			c-0.5,0.6-1.1,1.2-1.8,1.6c-0.7,0.4-1.5,0.8-2.4,1s-1.8,0.4-2.7,0.4c-1.6,0-3.1-0.3-4.3-0.9c-1.2-0.6-2.3-1.4-3.2-2.4
			s-1.5-2.2-2-3.5c-0.4-1.3-0.7-2.8-0.7-4.3c0-1.5,0.2-3,0.7-4.3s1.1-2.6,2-3.6c0.9-1,1.9-1.9,3.2-2.5c1.2-0.6,2.7-0.9,4.3-0.9
			c1.1,0,2.2,0.2,3.2,0.5c1,0.3,1.9,0.8,2.7,1.4c0.8,0.6,1.5,1.4,2,2.3c0.5,0.9,0.9,2,1.1,3h-1.3c-0.5-2-1.4-3.4-2.7-4.4
			c-1.3-1.1-2.9-1.6-4.9-1.6c-1.4,0-2.7,0.3-3.8,0.8c-1.1,0.6-2,1.3-2.8,2.2c-0.7,0.9-1.3,2-1.7,3.3s-0.6,2.5-0.6,3.9
			c0,1.4,0.2,2.6,0.6,3.9c0.4,1.2,0.9,2.3,1.6,3.2c0.7,0.9,1.6,1.6,2.7,2.1c1.1,0.5,2.4,0.8,3.9,0.8c1.3,0,2.4-0.2,3.5-0.6
			c1-0.4,1.9-1,2.6-1.8c0.7-0.8,1.2-1.9,1.6-2.9c0.4-1.1,0.5-1.8,0.4-3.8H418v-1h9V33z M449,33h-1.6l-13.6-20h0.2v20h-2V11h2.1
			l13.5,20h0.4V11h1V33z"/>
		<path class="st8" d="M318.9,14.9c-0.8-0.9-1.7-1.6-2.8-2.2c-1.1-0.5-2.3-0.8-3.7-0.8c-1.4,0-2.7,0.3-3.8,0.8s-2,1.3-2.8,2.2
			c-0.8,0.9-1.3,2-1.7,3.2c-0.4,1.2-0.6,2.5-0.6,3.9c0,1.4,0.2,2.7,0.6,3.9s1,2.3,1.7,3.2c0.8,0.9,1.7,1.6,2.8,2.2s2.3,0.8,3.8,0.8
			c1.4,0,2.6-0.3,3.7-0.8c1.1-0.5,2-1.3,2.8-2.2c0.8-0.9,1.3-2,1.7-3.2s0.6-2.5,0.6-3.9c0-1.4-0.2-2.7-0.6-3.9
			C320.3,16.9,319.7,15.9,318.9,14.9z"/>
		<path class="st8" d="M162.5,14.9c-0.8-0.9-1.7-1.6-2.8-2.2c-1.1-0.5-2.3-0.8-3.7-0.8s-2.7,0.3-3.8,0.8c-1.1,0.5-2,1.3-2.8,2.2
			c-0.8,0.9-1.3,2-1.7,3.2c-0.4,1.2-0.6,2.5-0.6,3.9c0,1.4,0.2,2.7,0.6,3.9c0.4,1.2,1,2.3,1.7,3.2c0.8,0.9,1.7,1.6,2.8,2.2
			c1.1,0.5,2.4,0.8,3.8,0.8s2.6-0.3,3.7-0.8c1.1-0.5,2-1.3,2.8-2.2c0.8-0.9,1.3-2,1.7-3.2c0.4-1.2,0.6-2.5,0.6-3.9
			c0-1.4-0.2-2.7-0.6-3.9C163.9,16.9,163.3,15.9,162.5,14.9z"/>
		<path class="st8" d="M108.4,19.2c0.3-0.6,0.4-1.4,0.4-2.2c0-0.8-0.1-1.5-0.5-2.1c-0.3-0.6-0.7-1-1.2-1.4c-0.5-0.4-1.1-0.9-1.7-1
			c-0.7-0.2-1.4-0.5-2.1-0.5H96v10h7.4c0.8,0,1.5-0.2,2.2-0.4c0.7-0.2,1.2-0.5,1.7-0.9C107.7,20.3,108.1,19.8,108.4,19.2z"/>
	</g>
</g>
<g id="Layer_1_copy_2" class="st0">
	<rect x="0" y="0" class="st1" width="490" height="45"/>
	<rect y="11.3" class="st2" width="490" height="51.7"/>
	<text transform="matrix(1 0 0 1 65.9761 32.7513)" class="st3 st4 st5 st6">scheduled to arrive</text>
</g>
<g id="Layer_1_copy_3" class="st0">
	<g class="st7">
		<path class="st8" d="M249.4,15.6c-0.5-0.7-1-1.3-1.6-1.7c-0.6-0.4-1.2-0.7-1.9-0.9c-0.7-0.2-1.3-0.6-2-0.7
			c-0.7-0.1-1.2-0.3-1.8-0.3H237v20h5.5c1,0,2-0.3,3-0.7c1-0.3,1.9-0.9,2.7-1.7c0.8-0.7,1.5-1.8,2-3c0.5-1.2,0.8-2.8,0.8-4.7
			c0-1.5-0.1-2.7-0.4-3.8C250.3,17.2,249.9,16.3,249.4,15.6z"/>
		<path class="st8" d="M168.4,15.6c-0.5-0.7-1-1.3-1.6-1.7c-0.6-0.4-1.2-0.7-1.9-0.9c-0.6-0.2-1.3-0.6-1.9-0.7
			c-0.7-0.1-1.2-0.3-1.8-0.3H156v20h5.5c1,0,2-0.3,3-0.7c1-0.3,1.9-0.9,2.7-1.7c0.8-0.7,1.5-1.8,2-3c0.5-1.2,0.8-2.8,0.8-4.7
			c0-1.5-0.1-2.7-0.4-3.8C169.3,17.2,168.9,16.3,168.4,15.6z"/>
		<polygon class="st8" points="326.9,13 322.2,25 331.6,25 327,13 		"/>
		<path class="st8" d="M353.9,19.2c0.3-0.6,0.4-1.4,0.4-2.2c0-0.8-0.2-1.5-0.5-2.1c-0.3-0.6-0.7-1-1.2-1.4c-0.5-0.4-1.1-0.9-1.7-1
			c-0.7-0.2-1.4-0.5-2.1-0.5H341v10h7.8c0.8,0,1.5-0.2,2.2-0.4s1.2-0.5,1.7-0.9C353.2,20.3,353.6,19.8,353.9,19.2z"/>
		<path class="st8" d="M375,19.2c0.3-0.6,0.4-1.4,0.4-2.2c0-0.8-0.2-1.5-0.5-2.1c-0.3-0.6-0.7-1-1.2-1.4c-0.5-0.4-1.1-0.9-1.7-1
			c-0.7-0.2-1.4-0.5-2.1-0.5h-8v10h8c0.8,0,1.5-0.2,2.2-0.4s1.2-0.5,1.7-0.9C374.4,20.3,374.8,19.8,375,19.2z"/>
		<path class="st8" d="M0,0v45h490V0H0z M83.6,30.1c-0.5,0.8-1.1,1.4-1.8,1.9c-0.7,0.5-1.5,0.8-2.4,1c-0.9,0.2-1.7,0.3-2.6,0.3
			c-1.3,0-2.4-0.1-3.5-0.4c-1.1-0.3-2.1-0.7-2.9-1.3c-0.8-0.6-1.5-1.2-1.9-2.2c-0.5-1-0.7-2.3-0.7-3.3h1.3c-0.1,1,0.1,2,0.5,2.8
			c0.4,0.8,1,1.4,1.7,1.9c0.7,0.5,1.5,0.9,2.5,1.1c1,0.2,2,0.3,3,0.3c0.6,0,1.3-0.1,2.1-0.3c0.7-0.2,1.4-0.4,2-0.8
			c0.6-0.4,1.1-0.9,1.5-1.5c0.4-0.6,0.6-1.4,0.6-2.3c0-0.9-0.2-1.6-0.6-2.2c-0.4-0.6-1-1-1.7-1.4c-0.7-0.3-1.5-0.6-2.3-0.8
			s-1.8-0.4-2.7-0.6c-0.9-0.2-1.8-0.4-2.7-0.6c-0.9-0.2-1.7-0.6-2.3-1C70,20.2,69.5,19.7,69,19c-0.4-0.6-0.6-1.5-0.6-2.5
			s0.2-1.9,0.6-2.6c0.4-0.7,1-1.3,1.7-1.8s1.5-0.8,2.3-1c0.9-0.2,1.7-0.3,2.5-0.3c1.1,0,2.2,0.1,3.1,0.4c1,0.3,1.8,0.6,2.6,1.2
			c0.7,0.5,1.3,1,1.8,1.8s0.7,1.8,0.8,2.8h-1.3c0,0-0.2-1.5-0.6-2.2c-0.4-0.7-0.8-1.1-1.4-1.6c-0.6-0.5-1.3-0.7-2.1-1
			s-1.7-0.3-2.7-0.3c-0.6,0-1.2,0.1-1.9,0.2c-0.7,0.1-1.3,0.4-1.9,0.7c-0.6,0.4-1.1,0.8-1.5,1.4c-0.4,0.6-0.6,1.3-0.6,2.2
			c0,0.9,0.2,1.6,0.6,2.1s1,1,1.6,1.3c0.7,0.3,1.5,0.6,2.3,0.8c0.9,0.2,1.8,0.4,2.7,0.6c0.9,0.2,1.8,0.4,2.7,0.6
			c0.9,0.3,1.6,0.6,2.3,1c0.7,0.4,1.2,1,1.7,1.7c0.4,0.7,0.6,1.6,0.6,2.6C84.3,28.4,84.1,29.3,83.6,30.1z M107.1,27.7
			c-0.5,1.1-1.2,2.1-2,2.9c-0.8,0.8-1.7,1.5-2.7,1.9c-1,0.4-2.1,0.7-3.3,0.7c-1.6,0-3-0.3-4.3-0.9c-1.3-0.6-2.3-1.4-3.2-2.4
			c-0.9-1-1.5-2.2-2-3.6c-0.5-1.4-0.7-2.8-0.7-4.4s0.2-3,0.7-4.4c0.5-1.4,1.1-2.6,2-3.6c0.9-1,1.9-1.8,3.2-2.4
			c1.3-0.6,2.7-0.9,4.3-0.9c1.3,0,2.4,0.2,3.3,0.5s1.7,0.7,2.3,1.2c0.6,0.5,1.1,1,1.5,1.6c0.4,0.6,0.7,1.1,0.9,1.6
			c0.2,0.5,0.4,1.1,0.4,1.5c0.1,0.4,0.1,0.8,0.1,0.8h-1.3c-0.1-1-0.4-1.8-0.9-2.6c-0.4-0.7-1-1.4-1.7-1.9c-0.7-0.5-1.4-0.9-2.2-1.2
			c-0.8-0.3-1.7-0.4-2.6-0.4c-1.4,0-2.6,0.3-3.8,0.8s-2,1.3-2.8,2.2c-0.8,0.9-1.3,2-1.7,3.2c-0.4,1.2-0.6,2.5-0.6,3.9
			c0,1.4,0.2,2.7,0.6,3.9c0.4,1.2,1,2.3,1.7,3.2c0.8,0.9,1.7,1.6,2.8,2.2s2.4,0.8,3.8,0.8c1,0,2-0.2,2.9-0.6c0.9-0.4,1.7-1,2.4-1.7
			c0.7-0.7,1.2-1.7,1.6-2.7c0.4-0.9,0.6-2.1,0.7-3.1h1.3C107.9,26,107.6,26.7,107.1,27.7z M129,33h-1V22h-14v11h-1V11h1v10h14V11h1
			V33z M150,33h-15V11h15v1h-13v9h12v1h-12v10h13V33z M170.8,26.3c-0.4,1.3-1,2.4-1.8,3.4c-0.8,1-1.9,1.8-3.1,2.4
			c-1.3,0.6-2.7,0.9-4.5,0.9H154V11h7.4c1.9,0,3.5,0.5,4.8,1.1s2.3,1.5,3,2.5c0.8,1,1.3,2.2,1.6,3.5c0.3,1.3,0.5,2.6,0.5,4
			C171.3,23.5,171.1,24.9,170.8,26.3z M193,24.2c0,1.3-0.1,2.5-0.4,3.6c-0.3,1.1-0.7,2.1-1.4,2.9c-0.6,0.8-1.5,1.5-2.6,1.9
			c-1.1,0.5-2.4,0.7-4,0.7c-1.3,0-2.3-0.2-3.2-0.5s-1.6-0.7-2.2-1.2c-0.6-0.5-1.1-1.1-1.4-1.8c-0.3-0.7-0.6-1.3-0.8-2
			c-0.2-0.7-0.1-1.3-0.2-2c0-0.6,0.1-1.2,0.1-1.7V11h1v13.2c0,0.4,0,0.9,0.1,1.5c0,0.6,0.1,1.1,0.3,1.7s0.4,1.2,0.7,1.7
			c0.3,0.6,0.7,1.1,1.2,1.5c0.5,0.5,1.1,0.8,1.8,1.1c0.7,0.3,1.6,0.4,2.7,0.4c1.3,0,2.4-0.2,3.3-0.6c0.9-0.4,1.6-0.9,2.2-1.6
			c0.6-0.7,1.1-1.5,1.3-2.5c0.2-1,0.5-2.1,0.5-3.3V11h1V24.2z M213,33h-14V11h1v21h13V33z M231,33h-15V11h15v1h-13v9h12v1h-12v10h13
			V33z M251.7,26.3c-0.4,1.3-1,2.4-1.8,3.4c-0.8,1-1.9,1.8-3.1,2.4c-1.2,0.6-2.7,0.9-4.5,0.9H235V11h7.4c1.9,0,3.5,0.5,4.8,1.1
			c1.3,0.6,2.3,1.5,3,2.5c0.8,1,1.3,2.2,1.6,3.5c0.3,1.3,0.5,2.6,0.5,4C252.3,23.5,252.1,24.9,251.7,26.3z M282,12h-7v21h-2V12h-7
			v-1h16V12z M303.5,26.4c-0.5,1.4-1.1,2.6-2,3.6c-0.9,1-1.9,1.8-3.2,2.4c-1.3,0.6-2.7,0.9-4.3,0.9c-1.6,0-3-0.3-4.3-0.9
			c-1.3-0.6-2.3-1.4-3.2-2.4c-0.9-1-1.5-2.2-2-3.6s-0.7-2.8-0.7-4.4s0.2-3,0.7-4.4c0.5-1.4,1.1-2.6,2-3.6s1.9-1.8,3.2-2.4
			c1.3-0.6,2.7-0.9,4.3-0.9c1.6,0,3,0.3,4.3,0.9c1.3,0.6,2.3,1.4,3.2,2.4s1.5,2.2,2,3.6c0.5,1.4,0.7,2.8,0.7,4.4
			S304,25.1,303.5,26.4z M334.7,33l-2.7-7h-10.3l-2.7,7h-1.4l8.6-22h1.4l8.5,22H334.7z M354.5,33c-0.3-1-0.4-1.2-0.5-1.9
			c0-0.7,0-1.4,0-2.1s0-1.5-0.1-2.2c-0.1-0.7-0.2-1.4-0.6-1.9c-0.3-0.6-0.8-1-1.5-1.4c-0.7-0.3-1.7-0.5-2.9-0.5H341v10h-1V11h8.8
			c0.9,0,1.8,0.3,2.6,0.5s1.5,0.6,2.2,1c0.6,0.4,1.1,1,1.5,1.7c0.3,0.7,0.5,1.6,0.5,2.6c0,1.4-0.4,2.7-1.2,3.7
			c-0.8,1-2.4,1.6-3.4,1.9v0.1c1,0.1,1.8,0.4,2.3,0.8c0.6,0.4,1,0.9,1.3,1.5c0.3,0.6,0.3,1.2,0.4,1.9c0.1,0.7,0,1.4,0,2.1
			c0,0.4,0,0.8,0,1.2s0.2,0.8,0.2,1.1s0.2,0.8,0.3,1.1s0.3,0.9,0.4,0.9H354.5z M375.6,33c-0.3-1-0.4-1.2-0.5-1.9c0-0.7,0-1.4,0-2.1
			s0-1.5-0.1-2.2c-0.1-0.7-0.2-1.4-0.6-1.9c-0.3-0.6-0.8-1-1.5-1.4c-0.7-0.3-1.7-0.5-2.9-0.5h-8v10h-1V11h9c0.9,0,1.8,0.3,2.6,0.5
			s1.5,0.6,2.2,1c0.6,0.4,1.1,1,1.5,1.7c0.3,0.7,0.5,1.6,0.5,2.6c0,1.4-0.5,2.7-1.3,3.7c-0.8,1-1.5,1.6-3.5,1.9v0.1
			c1,0.1,1.8,0.4,2.4,0.8c0.6,0.4,1,0.9,1.3,1.5c0.3,0.6,0.3,1.2,0.3,1.9c0.1,0.7-0.1,1.4-0.1,2.1c0,0.4,0,0.8,0,1.2
			s0.2,0.8,0.3,1.1s0.2,0.8,0.3,1.1s0.3,0.9,0.5,0.9H375.6z M384,33h-2V11h2V33z M396.8,33h-1.5l-8-22h1.4l7.3,21h0.1l7.4-21h1.3
			L396.8,33z M423,33h-15V11h15v1h-13v9h12v1h-12v10h13V33z"/>
		<path class="st8" d="M300.5,14.9c-0.8-0.9-1.7-1.6-2.8-2.2c-1.1-0.5-2.3-0.8-3.7-0.8c-1.4,0-2.7,0.3-3.8,0.8s-2,1.3-2.8,2.2
			c-0.8,0.9-1.3,2-1.7,3.2c-0.4,1.2-0.6,2.5-0.6,3.9c0,1.4,0.2,2.7,0.6,3.9s1,2.3,1.7,3.2c0.8,0.9,1.7,1.6,2.8,2.2s2.3,0.8,3.8,0.8
			c1.4,0,2.6-0.3,3.7-0.8c1.1-0.5,2-1.3,2.8-2.2c0.8-0.9,1.3-2,1.7-3.2s0.6-2.5,0.6-3.9c0-1.4-0.2-2.7-0.6-3.9
			C301.9,16.9,301.3,15.9,300.5,14.9z"/>
	</g>
</g>
<g id="Layer_1_copy_4" class="st0">
	<rect x="0" y="0" class="st1" width="490" height="45"/>
	<rect y="11.3" class="st2" width="490" height="51.7"/>
	<text transform="matrix(1 0 0 1 80.2715 32.7513)" class="st3 st4 st5 st6">open work orders</text>
</g>
<g id="Layer_1_copy_6" class="st0">
	<g class="st7">
		<path class="st8" d="M246.2,19.2c0.3-0.6,0.4-1.4,0.4-2.2c0-0.8-0.2-1.5-0.5-2.1c-0.3-0.6-0.7-1-1.2-1.4c-0.5-0.4-1.1-0.9-1.7-1
			c-0.7-0.2-1.4-0.5-2.1-0.5H234v10h7.2c0.8,0,1.5-0.2,2.2-0.4s1.2-0.5,1.7-0.9C245.6,20.3,246,19.8,246.2,19.2z"/>
		<path class="st8" d="M323.1,19.2c0.3-0.6,0.4-1.4,0.4-2.2c0-0.8-0.2-1.5-0.5-2.1c-0.3-0.6-0.7-1-1.2-1.4c-0.5-0.4-1.1-0.9-1.7-1
			c-0.7-0.2-1.4-0.5-2.1-0.5h-8v10h8c0.8,0,1.5-0.2,2.2-0.4s1.2-0.5,1.7-0.9C322.4,20.3,322.8,19.8,323.1,19.2z"/>
		<path class="st8" d="M344.3,15.6c-0.5-0.7-1-1.3-1.6-1.7c-0.6-0.4-1.2-0.7-1.9-0.9c-0.7-0.2-1.3-0.6-2-0.7
			c-0.7-0.1-1.2-0.3-1.8-0.3H332v20h5.3c1,0,2-0.3,3-0.7c1-0.3,1.9-0.9,2.7-1.7c0.8-0.7,1.5-1.8,2-3c0.5-1.2,0.8-2.8,0.8-4.7
			c0-1.5-0.1-2.7-0.4-3.8C345.1,17.2,344.8,16.3,344.3,15.6z"/>
		<path class="st8" d="M300.4,14.9c-0.8-0.9-1.7-1.6-2.8-2.2c-1.1-0.5-2.3-0.8-3.7-0.8c-1.4,0-2.7,0.3-3.8,0.8s-2,1.3-2.8,2.2
			c-0.8,0.9-1.3,2-1.7,3.2c-0.4,1.2-0.6,2.5-0.6,3.9c0,1.4,0.2,2.7,0.6,3.9s1,2.3,1.7,3.2c0.8,0.9,1.7,1.6,2.8,2.2s2.3,0.8,3.8,0.8
			c1.4,0,2.6-0.3,3.7-0.8c1.1-0.5,2-1.3,2.8-2.2c0.8-0.9,1.3-2,1.7-3.2s0.6-2.5,0.6-3.9c0-1.4-0.2-2.7-0.6-3.9
			C301.7,16.9,301.1,15.9,300.4,14.9z"/>
		<path class="st8" d="M119.8,14.3c-0.4-0.5-0.9-1.2-1.5-1.5c-0.7-0.3-1.5-0.8-2.6-0.8H108v10h7.5c1,0,1.8-0.1,2.4-0.4
			c0.7-0.3,1.2-0.6,1.6-1.1c0.4-0.5,0.7-1,0.9-1.5c0.2-0.6,0.3-1.1,0.3-1.7c0-0.4-0.1-0.9-0.2-1.4C120.4,15.3,120.1,14.8,119.8,14.3
			z"/>
		<path class="st8" d="M97.9,14.9c-0.8-0.9-1.7-1.6-2.8-2.2C94,12.2,92.8,12,91.4,12s-2.7,0.3-3.8,0.8c-1.1,0.5-2,1.3-2.8,2.2
			c-0.8,0.9-1.3,2-1.7,3.2c-0.4,1.2-0.6,2.5-0.6,3.9c0,1.4,0.2,2.7,0.6,3.9c0.4,1.2,1,2.3,1.7,3.2c0.8,0.9,1.7,1.6,2.8,2.2
			c1.1,0.5,2.4,0.8,3.8,0.8s2.6-0.3,3.7-0.8c1.1-0.5,2-1.3,2.8-2.2c0.8-0.9,1.3-2,1.7-3.2c0.4-1.2,0.6-2.5,0.6-3.9
			c0-1.4-0.2-2.7-0.6-3.9C99.3,16.9,98.7,15.9,97.9,14.9z"/>
		<path class="st8" d="M223.5,14.9c-0.8-0.9-1.7-1.6-2.8-2.2c-1.1-0.5-2.3-0.8-3.7-0.8s-2.7,0.3-3.8,0.8c-1.1,0.5-2,1.3-2.8,2.2
			c-0.8,0.9-1.3,2-1.7,3.2c-0.4,1.2-0.6,2.5-0.6,3.9c0,1.4,0.2,2.7,0.6,3.9c0.4,1.2,1,2.3,1.7,3.2c0.8,0.9,1.7,1.6,2.8,2.2
			c1.1,0.5,2.4,0.8,3.8,0.8s2.6-0.3,3.7-0.8c1.1-0.5,2-1.3,2.8-2.2c0.8-0.9,1.3-2,1.7-3.2c0.4-1.2,0.6-2.5,0.6-3.9
			c0-1.4-0.2-2.7-0.6-3.9C224.9,16.9,224.3,15.9,223.5,14.9z"/>
		<path class="st8" d="M0,0v45h490V0H0z M100.9,26.4c-0.5,1.4-1.1,2.6-2,3.6c-0.9,1-1.9,1.8-3.2,2.4c-1.3,0.6-2.7,0.9-4.3,0.9
			s-3-0.3-4.3-0.9c-1.3-0.6-2.3-1.4-3.2-2.4c-0.9-1-1.5-2.2-2-3.6c-0.5-1.4-0.7-2.8-0.7-4.4s0.2-3,0.7-4.4c0.5-1.4,1.1-2.6,2-3.6
			c0.9-1,1.9-1.8,3.2-2.4c1.3-0.6,2.7-0.9,4.3-0.9s3,0.3,4.3,0.9c1.3,0.6,2.3,1.4,3.2,2.4c0.9,1,1.5,2.2,2,3.6
			c0.5,1.4,0.7,2.8,0.7,4.4S101.3,25.1,100.9,26.4z M120.3,21.6c-1.2,1-2.8,1.4-5,1.4H108v10h-1V11h8.8c0.6,0,1.3,0.2,2,0.4
			c0.7,0.1,1.4,0.5,2,0.9c0.6,0.4,1.2,1.1,1.6,1.9s0.6,1.8,0.6,3.1C122,19.1,121.4,20.6,120.3,21.6z M141,33h-14V11h14v1h-13v9h12v1
			h-12v10h13V33z M162,33h-1.3l-13.6-20H147v20h-1V11h1.3l13.5,20h0.1V11h1V33z M197.7,33h-1.5l-5.9-21h-0.1l-5.8,21H183l-6.2-22
			h1.4l5.6,20h0.1l5.7-20h1.6l5.8,20h0.1l5.5-20h1.4L197.7,33z M226.5,26.4c-0.5,1.4-1.1,2.6-2,3.6c-0.9,1-1.9,1.8-3.2,2.4
			c-1.3,0.6-2.7,0.9-4.3,0.9s-3-0.3-4.3-0.9c-1.3-0.6-2.3-1.4-3.2-2.4c-0.9-1-1.5-2.2-2-3.6c-0.5-1.4-0.7-2.8-0.7-4.4s0.2-3,0.7-4.4
			c0.5-1.4,1.1-2.6,2-3.6c0.9-1,1.9-1.8,3.2-2.4c1.3-0.6,2.7-0.9,4.3-0.9s3,0.3,4.3,0.9c1.3,0.6,2.3,1.4,3.2,2.4
			c0.9,1,1.5,2.2,2,3.6c0.5,1.4,0.7,2.8,0.7,4.4S227,25.1,226.5,26.4z M246.8,33c-0.3-1-0.4-1.2-0.5-1.9c0-0.7,0-1.4,0-2.1
			s0-1.5-0.1-2.2c-0.1-0.7-0.2-1.4-0.6-1.9c-0.3-0.6-0.8-1-1.5-1.4c-0.7-0.3-1.7-0.5-2.9-0.5H234v10h-2V11h9.2
			c0.9,0,1.8,0.3,2.6,0.5s1.5,0.6,2.2,1c0.6,0.4,1.1,1,1.5,1.7c0.3,0.7,0.5,1.6,0.5,2.6c0,1.4-0.6,2.7-1.4,3.7
			c-0.8,1-1.6,1.6-3.6,1.9v0.1c1,0.1,1.9,0.4,2.5,0.8c0.6,0.4,1.1,0.9,1.4,1.5c0.3,0.6,0.7,1.2,0.8,1.9c0.1,0.7,0.3,1.4,0.3,2.1
			c0,0.4,0,0.8,0,1.2s-0.2,0.8-0.1,1.1s0,0.8,0.1,1.1s0.1,0.9,0.3,0.9H246.8z M268.8,33l-9.5-11.7l-4.3,3.9V33h-2V11h2v12.7
			L268.2,11h1.7l-9.8,9.2L270.5,33H268.8z M303.3,26.4c-0.5,1.4-1.1,2.6-2,3.6c-0.9,1-1.9,1.8-3.2,2.4c-1.3,0.6-2.7,0.9-4.3,0.9
			c-1.6,0-3-0.3-4.3-0.9c-1.3-0.6-2.3-1.4-3.2-2.4c-0.9-1-1.5-2.2-2-3.6s-0.7-2.8-0.7-4.4s0.2-3,0.7-4.4c0.5-1.4,1.1-2.6,2-3.6
			s1.9-1.8,3.2-2.4c1.3-0.6,2.7-0.9,4.3-0.9c1.6,0,3,0.3,4.3,0.9c1.3,0.6,2.3,1.4,3.2,2.4s1.5,2.2,2,3.6c0.5,1.4,0.7,2.8,0.7,4.4
			S303.8,25.1,303.3,26.4z M323.7,33c-0.3-1-0.4-1.2-0.5-1.9c0-0.7,0-1.4,0-2.1s0-1.5-0.1-2.2c-0.1-0.7-0.2-1.4-0.6-1.9
			c-0.3-0.6-0.8-1-1.5-1.4c-0.7-0.3-1.7-0.5-2.9-0.5h-8v10h-1V11h9c0.9,0,1.8,0.3,2.6,0.5s1.5,0.6,2.2,1c0.6,0.4,1.1,1,1.5,1.7
			c0.3,0.7,0.5,1.6,0.5,2.6c0,1.4-0.5,2.7-1.3,3.7c-0.8,1-1.5,1.6-3.5,1.9v0.1c1,0.1,1.9,0.4,2.4,0.8c0.6,0.4,1.1,0.9,1.3,1.5
			c0.3,0.6,0.2,1.2,0.3,1.9c0.1,0.7-0.1,1.4-0.1,2.1c0,0.4,0,0.8,0,1.2s0.3,0.8,0.3,1.1s0.2,0.8,0.3,1.1s0.3,0.9,0.5,0.9H323.7z
			 M346.6,26.3c-0.4,1.3-1,2.4-1.8,3.4c-0.8,1-1.9,1.8-3.1,2.4c-1.2,0.6-2.7,0.9-4.5,0.9H330V11h7.3c1.9,0,3.5,0.5,4.8,1.1
			c1.3,0.6,2.3,1.5,3,2.5c0.8,1,1.3,2.2,1.6,3.5c0.3,1.3,0.5,2.6,0.5,4C347.2,23.5,347,24.9,346.6,26.3z M367,33h-14V11h14v1h-13v9
			h12v1h-12v10h13V33z M386.1,33c-0.3-1-0.4-1.2-0.5-1.9c0-0.7,0-1.4,0-2.1s0-1.5-0.1-2.2c-0.1-0.7-0.2-1.4-0.6-1.9
			c-0.3-0.6-0.8-1-1.5-1.4c-0.7-0.3-1.7-0.5-2.9-0.5H373v10h-1V11h8.5c0.9,0,1.8,0.3,2.6,0.5s1.5,0.6,2.2,1c0.6,0.4,1.1,1,1.5,1.7
			c0.3,0.7,0.5,1.6,0.5,2.6c0,1.4-0.3,2.7-1.1,3.7c-0.8,1-2.2,1.6-3.2,1.9v0.1c1,0.1,1.6,0.4,2.2,0.8c0.6,0.4,0.9,0.9,1.2,1.5
			c0.3,0.6,0.4,1.2,0.5,1.9c0.1,0.7,0.1,1.4,0.1,2.1c0,0.4,0,0.8,0,1.2s0,0.8,0,1.1s0.1,0.8,0.2,1.1s0.2,0.9,0.4,0.9H386.1z
			 M407.8,30.1c-0.5,0.8-1.1,1.4-1.8,1.9c-0.7,0.5-1.5,0.8-2.4,1s-1.7,0.3-2.6,0.3c-1.3,0-2.4-0.1-3.5-0.4c-1.1-0.3-2.1-0.7-2.9-1.3
			c-0.8-0.6-1.5-1.2-1.9-2.2S392,27,392,26h1.3c-0.1,1,0.1,2,0.5,2.8c0.4,0.8,1,1.4,1.7,1.9c0.7,0.5,1.5,0.9,2.5,1.1
			c1,0.2,2,0.3,3,0.3c0.6,0,1.3-0.1,2.1-0.3c0.7-0.2,1.4-0.4,2-0.8s1.1-0.9,1.5-1.5s0.6-1.4,0.6-2.3c0-0.9-0.2-1.6-0.6-2.2
			s-1-1-1.7-1.4c-0.7-0.3-1.5-0.6-2.3-0.8c-0.9-0.2-1.8-0.4-2.7-0.6c-0.9-0.2-1.8-0.4-2.7-0.6c-0.9-0.2-1.7-0.6-2.3-1
			c-0.7-0.4-1.2-0.9-1.7-1.6c-0.4-0.6-0.6-1.5-0.6-2.5s0.2-1.9,0.6-2.6c0.4-0.7,1-1.3,1.7-1.8s1.5-0.8,2.3-1
			c0.9-0.2,1.7-0.3,2.5-0.3c1.1,0,2.2,0.1,3.1,0.4c1,0.3,1.8,0.6,2.5,1.2c0.7,0.5,1.3,1,1.8,1.8C407.7,15,408,16,408,17h-1.3
			c0,0-0.2-1.5-0.6-2.2c-0.4-0.7-0.8-1.1-1.4-1.6c-0.6-0.5-1.3-0.7-2.1-1s-1.7-0.3-2.7-0.3c-0.6,0-1.2,0.1-1.9,0.2
			c-0.7,0.1-1.3,0.4-1.9,0.7c-0.6,0.4-1.1,0.8-1.5,1.4c-0.4,0.6-0.6,1.3-0.6,2.2c0,0.9,0.2,1.6,0.6,2.1s1,1,1.7,1.3
			c0.7,0.3,1.5,0.6,2.3,0.8c0.9,0.2,1.8,0.4,2.7,0.6c0.9,0.2,1.8,0.4,2.7,0.6c0.9,0.3,1.7,0.6,2.3,1c0.7,0.4,1.2,1,1.7,1.7
			c0.4,0.7,0.6,1.6,0.6,2.6C408.6,28.4,408.3,29.3,407.8,30.1z"/>
		<path class="st8" d="M385.5,19.2c0.3-0.6,0.4-1.4,0.4-2.2c0-0.8-0.2-1.5-0.5-2.1c-0.3-0.6-0.7-1-1.2-1.4c-0.5-0.4-1.1-0.9-1.7-1
			c-0.7-0.2-1.4-0.5-2.1-0.5H373v10h7.5c0.8,0,1.5-0.2,2.2-0.4s1.2-0.5,1.7-0.9C384.9,20.3,385.3,19.8,385.5,19.2z"/>
	</g>
</g>
<g id="Layer_1_copy_5" class="st0">
	<rect x="0" y="0" class="st1" width="490" height="45"/>
	<rect y="11.3" class="st2" width="490" height="51.7"/>
	<text transform="matrix(1 0 0 1 59.5415 32.7513)" class="st3 st4 st5 st6">closed work orders</text>
</g>
<g id="Layer_1_copy_7" class="st0">
	<g class="st7">
		<path class="st8" d="M320.6,14.9c-0.8-0.9-1.7-1.6-2.8-2.2c-1.1-0.5-2.3-0.8-3.7-0.8c-1.4,0-2.7,0.3-3.8,0.8s-2,1.3-2.8,2.2
			c-0.8,0.9-1.3,2-1.7,3.2c-0.4,1.2-0.6,2.5-0.6,3.9c0,1.4,0.2,2.7,0.6,3.9s1,2.3,1.7,3.2c0.8,0.9,1.7,1.6,2.8,2.2s2.3,0.8,3.8,0.8
			c1.4,0,2.6-0.3,3.7-0.8c1.1-0.5,2-1.3,2.8-2.2c0.8-0.9,1.3-2,1.7-3.2s0.6-2.5,0.6-3.9c0-1.4-0.2-2.7-0.6-3.9
			C321.9,16.9,321.3,15.9,320.6,14.9z"/>
		<path class="st8" d="M266.4,19.2c0.3-0.6,0.4-1.4,0.4-2.2c0-0.8-0.2-1.5-0.5-2.1c-0.3-0.6-0.7-1-1.2-1.4c-0.5-0.4-1.1-0.9-1.7-1
			c-0.7-0.2-1.4-0.5-2.1-0.5H254v10h7.4c0.8,0,1.5-0.2,2.2-0.4s1.2-0.5,1.7-0.9C265.8,20.3,266.1,19.8,266.4,19.2z"/>
		<path class="st8" d="M343.3,19.2c0.3-0.6,0.4-1.4,0.4-2.2c0-0.8-0.2-1.5-0.5-2.1c-0.3-0.6-0.7-1-1.2-1.4c-0.5-0.4-1.1-0.9-1.7-1
			c-0.7-0.2-1.4-0.5-2.1-0.5H331v10h7.2c0.8,0,1.5-0.2,2.2-0.4s1.2-0.5,1.7-0.9C342.6,20.3,343,19.8,343.3,19.2z"/>
		<path class="st8" d="M117.3,14.9c-0.8-0.9-1.7-1.6-2.8-2.2c-1.1-0.5-2.3-0.8-3.7-0.8s-2.7,0.3-3.8,0.8c-1.1,0.5-2,1.3-2.8,2.2
			c-0.8,0.9-1.3,2-1.7,3.2c-0.4,1.2-0.6,2.5-0.6,3.9c0,1.4,0.2,2.7,0.6,3.9c0.4,1.2,1,2.3,1.7,3.2c0.8,0.9,1.7,1.6,2.8,2.2
			c1.1,0.5,2.4,0.8,3.8,0.8s2.6-0.3,3.7-0.8c1.1-0.5,2-1.3,2.8-2.2c0.8-0.9,1.3-2,1.7-3.2c0.4-1.2,0.6-2.5,0.6-3.9
			c0-1.4-0.2-2.7-0.6-3.9C118.6,16.9,118,15.9,117.3,14.9z"/>
		<path class="st8" d="M180.2,15.6c-0.5-0.7-1-1.3-1.6-1.7c-0.6-0.4-1.2-0.7-1.9-0.9c-0.6-0.2-1.3-0.6-1.9-0.7
			c-0.7-0.1-1.2-0.3-1.8-0.3h-5v20h5.3c1,0,2-0.3,3-0.7c1-0.3,1.9-0.9,2.7-1.7c0.8-0.7,1.5-1.8,2-3c0.5-1.2,0.8-2.8,0.8-4.7
			c0-1.5-0.1-2.7-0.4-3.8C181.1,17.2,180.7,16.3,180.2,15.6z"/>
		<path class="st8" d="M364.5,15.6c-0.5-0.7-1-1.3-1.6-1.7c-0.6-0.4-1.2-0.7-1.9-0.9c-0.7-0.2-1.3-0.6-2-0.7
			c-0.7-0.1-1.2-0.3-1.8-0.3H352v20h5.5c1,0,2-0.3,3-0.7c1-0.3,1.9-0.9,2.7-1.7c0.8-0.7,1.5-1.8,2-3c0.5-1.2,0.8-2.8,0.8-4.7
			c0-1.5-0.1-2.7-0.4-3.8C365.3,17.2,364.9,16.3,364.5,15.6z"/>
		<path class="st8" d="M243.7,14.9c-0.8-0.9-1.7-1.6-2.8-2.2c-1.1-0.5-2.3-0.8-3.7-0.8c-1.4,0-2.7,0.3-3.8,0.8s-2,1.3-2.8,2.2
			c-0.8,0.9-1.3,2-1.7,3.2c-0.4,1.2-0.6,2.5-0.6,3.9c0,1.4,0.2,2.7,0.6,3.9c0.4,1.2,1,2.3,1.7,3.2c0.8,0.9,1.7,1.6,2.8,2.2
			s2.3,0.8,3.8,0.8c1.4,0,2.6-0.3,3.7-0.8c1.1-0.5,2-1.3,2.8-2.2c0.8-0.9,1.3-2,1.7-3.2s0.6-2.5,0.6-3.9c0-1.4-0.2-2.7-0.6-3.9
			C245,16.9,244.5,15.9,243.7,14.9z"/>
		<path class="st8" d="M0,0v45h490V0H0z M79.4,27.7c-0.5,1.1-1.2,2.1-2,2.9c-0.8,0.8-1.7,1.5-2.7,1.9c-1,0.4-2.1,0.7-3.3,0.7
			c-1.6,0-3-0.3-4.3-0.9c-1.3-0.6-2.3-1.4-3.2-2.4c-0.9-1-1.5-2.2-2-3.6c-0.5-1.4-0.7-2.8-0.7-4.4s0.2-3,0.7-4.4
			c0.5-1.4,1.1-2.6,2-3.6c0.9-1,1.9-1.8,3.2-2.4c1.3-0.6,2.7-0.9,4.3-0.9c1.3,0,2.4,0.2,3.3,0.5s1.7,0.7,2.3,1.2
			c0.6,0.5,1.1,1,1.5,1.6c0.4,0.6,0.7,1.1,0.9,1.6c0.2,0.5,0.4,1.1,0.4,1.5C79.9,17.6,80,18,80,18h-1.3c-0.1-1-0.4-1.8-0.9-2.6
			c-0.4-0.7-1-1.4-1.7-1.9c-0.7-0.5-1.4-0.9-2.2-1.2c-0.8-0.3-1.7-0.4-2.6-0.4c-1.4,0-2.6,0.3-3.8,0.8s-2,1.3-2.8,2.2
			c-0.8,0.9-1.3,2-1.7,3.2c-0.4,1.2-0.6,2.5-0.6,3.9c0,1.4,0.2,2.7,0.6,3.9c0.4,1.2,1,2.3,1.7,3.2c0.8,0.9,1.7,1.6,2.8,2.2
			s2.4,0.8,3.8,0.8c1,0,2-0.2,2.9-0.6c0.9-0.4,1.7-1,2.4-1.7c0.7-0.7,1.2-1.7,1.6-2.7C78.7,26.2,79,25,79,24h1.3
			C80.2,26,79.9,26.7,79.4,27.7z M99,33H85V11h2v21h12V33z M120.2,26.4c-0.5,1.4-1.1,2.6-2,3.6c-0.9,1-1.9,1.8-3.2,2.4
			c-1.3,0.6-2.7,0.9-4.3,0.9s-3-0.3-4.3-0.9c-1.3-0.6-2.3-1.4-3.2-2.4c-0.9-1-1.5-2.2-2-3.6c-0.5-1.4-0.7-2.8-0.7-4.4s0.2-3,0.7-4.4
			c0.5-1.4,1.1-2.6,2-3.6c0.9-1,1.9-1.8,3.2-2.4c1.3-0.6,2.7-0.9,4.3-0.9s3,0.3,4.3,0.9c1.3,0.6,2.3,1.4,3.2,2.4
			c0.9,1,1.5,2.2,2,3.6c0.5,1.4,0.7,2.8,0.7,4.4S120.7,25.1,120.2,26.4z M141.1,30.1c-0.5,0.8-1.1,1.4-1.8,1.9
			c-0.7,0.5-1.5,0.8-2.4,1c-0.9,0.2-1.7,0.3-2.6,0.3c-1.3,0-2.4-0.1-3.5-0.4c-1.1-0.3-2.1-0.7-2.9-1.3c-0.8-0.6-1.5-1.2-1.9-2.2
			c-0.5-1-0.7-2.3-0.7-3.3h1.3c-0.1,1,0.1,2,0.5,2.8c0.4,0.8,1,1.4,1.7,1.9c0.7,0.5,1.5,0.9,2.5,1.1c1,0.2,2,0.3,3,0.3
			c0.6,0,1.3-0.1,2.1-0.3c0.7-0.2,1.4-0.4,2-0.8c0.6-0.4,1.1-0.9,1.5-1.5c0.4-0.6,0.6-1.4,0.6-2.3c0-0.9-0.2-1.6-0.6-2.2
			c-0.4-0.6-1-1-1.7-1.4c-0.7-0.3-1.5-0.6-2.3-0.8s-1.8-0.4-2.7-0.6c-0.9-0.2-1.8-0.4-2.7-0.6c-0.9-0.2-1.7-0.6-2.3-1
			c-0.7-0.4-1.2-0.9-1.6-1.6c-0.4-0.6-0.6-1.5-0.6-2.5s0.2-1.9,0.6-2.6c0.4-0.7,1-1.3,1.7-1.8s1.5-0.8,2.3-1
			c0.9-0.2,1.7-0.3,2.5-0.3c1.1,0,2.2,0.1,3.1,0.4c1,0.3,1.8,0.6,2.6,1.2c0.7,0.5,1.3,1,1.8,1.8s0.7,1.8,0.8,2.8H140
			c0,0-0.2-1.5-0.6-2.2c-0.4-0.7-0.8-1.1-1.4-1.6c-0.6-0.5-1.3-0.7-2.1-1s-1.7-0.3-2.7-0.3c-0.6,0-1.2,0.1-1.9,0.2
			c-0.7,0.1-1.3,0.4-1.9,0.7c-0.6,0.4-1.1,0.8-1.5,1.4c-0.4,0.6-0.6,1.3-0.6,2.2c0,0.9,0.2,1.6,0.6,2.1s1,1,1.6,1.3
			c0.7,0.3,1.5,0.6,2.3,0.8c0.9,0.2,1.8,0.4,2.7,0.6c0.9,0.2,1.8,0.4,2.7,0.6c0.9,0.3,1.6,0.6,2.3,1c0.7,0.4,1.2,1,1.7,1.7
			c0.4,0.7,0.6,1.6,0.6,2.6C141.8,28.4,141.6,29.3,141.1,30.1z M162,33h-15V11h15v1h-14v9h13v1h-13v10h14V33z M182.5,26.3
			c-0.4,1.3-1,2.4-1.8,3.4c-0.8,1-1.9,1.8-3.1,2.4c-1.3,0.6-2.7,0.9-4.5,0.9H166V11h7.2c1.9,0,3.5,0.5,4.8,1.1s2.3,1.5,3,2.5
			c0.8,1,1.3,2.2,1.6,3.5c0.3,1.3,0.5,2.6,0.5,4C183.1,23.5,182.9,24.9,182.5,26.3z M217.9,33h-1.5l-5.9-21h-0.1l-5.8,21h-1.5
			L197,11h1.4l5.6,20h0.1l5.7-20h1.6l5.8,20h0.1l5.5-20h1.4L217.9,33z M246.7,26.4c-0.5,1.4-1.1,2.6-2,3.6c-0.9,1-1.9,1.8-3.2,2.4
			c-1.3,0.6-2.7,0.9-4.3,0.9c-1.6,0-3-0.3-4.3-0.9c-1.3-0.6-2.3-1.4-3.2-2.4c-0.9-1-1.5-2.2-2-3.6c-0.5-1.4-0.7-2.8-0.7-4.4
			s0.2-3,0.7-4.4c0.5-1.4,1.1-2.6,2-3.6s1.9-1.8,3.2-2.4c1.3-0.6,2.7-0.9,4.3-0.9c1.6,0,3,0.3,4.3,0.9c1.3,0.6,2.3,1.4,3.2,2.4
			s1.5,2.2,2,3.6c0.5,1.4,0.7,2.8,0.7,4.4S247.1,25.1,246.7,26.4z M267,33c-0.3-1-0.4-1.2-0.5-1.9c0-0.7,0-1.4,0-2.1s0-1.5-0.1-2.2
			c-0.1-0.7-0.2-1.4-0.6-1.9c-0.3-0.6-0.8-1-1.5-1.4c-0.7-0.3-1.7-0.5-2.9-0.5H254v10h-2V11h9.4c0.9,0,1.8,0.3,2.6,0.5
			s1.5,0.6,2.2,1c0.6,0.4,1.1,1,1.5,1.7c0.3,0.7,0.5,1.6,0.5,2.6c0,1.4-0.2,2.7-1,3.7c-0.8,1-2.2,1.6-3.2,1.9v0.1
			c1,0.1,1.5,0.4,2.1,0.8c0.6,0.4,0.9,0.9,1.2,1.5c0.3,0.6,0.5,1.2,0.6,1.9c0.1,0.7,0.2,1.4,0.2,2.1c0,0.4,0,0.8,0,1.2
			s-0.1,0.8,0,1.1s0.1,0.8,0.2,1.1s0.2,0.9,0.3,0.9H267z M289,33l-9.6-11.7l-4.4,3.9V33h-1V11h1v12.7L288.4,11h1.7l-9.8,9.2
			L290.7,33H289z M323.5,26.4c-0.5,1.4-1.1,2.6-2,3.6c-0.9,1-1.9,1.8-3.2,2.4c-1.3,0.6-2.7,0.9-4.3,0.9c-1.6,0-3-0.3-4.3-0.9
			c-1.3-0.6-2.3-1.4-3.2-2.4c-0.9-1-1.5-2.2-2-3.6s-0.7-2.8-0.7-4.4s0.2-3,0.7-4.4c0.5-1.4,1.1-2.6,2-3.6s1.9-1.8,3.2-2.4
			c1.3-0.6,2.7-0.9,4.3-0.9c1.6,0,3,0.3,4.3,0.9c1.3,0.6,2.3,1.4,3.2,2.4s1.5,2.2,2,3.6c0.5,1.4,0.7,2.8,0.7,4.4
			S324,25.1,323.5,26.4z M343.8,33c-0.3-1-0.4-1.2-0.5-1.9c0-0.7,0-1.4,0-2.1s0-1.5-0.1-2.2c-0.1-0.7-0.2-1.4-0.6-1.9
			c-0.3-0.6-0.8-1-1.5-1.4c-0.7-0.3-1.7-0.5-2.9-0.5H331v10h-2V11h9.2c0.9,0,1.8,0.3,2.6,0.5s1.5,0.6,2.2,1c0.6,0.4,1.1,1,1.5,1.7
			c0.3,0.7,0.5,1.6,0.5,2.6c0,1.4-0.6,2.7-1.4,3.7c-0.8,1-1.6,1.6-3.6,1.9v0.1c1,0.1,2,0.4,2.5,0.8c0.6,0.4,1.1,0.9,1.4,1.5
			c0.3,0.6,0.7,1.2,0.7,1.9c0.1,0.7,0.3,1.4,0.3,2.1c0,0.4,0,0.8,0,1.2s-0.1,0.8-0.1,1.1s0,0.8,0.1,1.1s0.1,0.9,0.3,0.9H343.8z
			 M366.8,26.3c-0.4,1.3-1,2.4-1.8,3.4c-0.8,1-1.9,1.8-3.1,2.4c-1.2,0.6-2.7,0.9-4.5,0.9H350V11h7.5c1.9,0,3.5,0.5,4.8,1.1
			c1.3,0.6,2.3,1.5,3,2.5c0.8,1,1.3,2.2,1.6,3.5c0.3,1.3,0.5,2.6,0.5,4C367.4,23.5,367.2,24.9,366.8,26.3z M387,33h-14V11h14v1h-13
			v9h12v1h-12v10h13V33z M406.3,33c-0.3-1-0.4-1.2-0.5-1.9c0-0.7,0-1.4,0-2.1s0-1.5-0.1-2.2c-0.1-0.7-0.2-1.4-0.6-1.9
			c-0.3-0.6-0.8-1-1.5-1.4c-0.7-0.3-1.7-0.5-2.9-0.5H393v10h-1V11h8.7c0.9,0,1.8,0.3,2.6,0.5s1.5,0.6,2.2,1c0.6,0.4,1.1,1,1.5,1.7
			c0.3,0.7,0.5,1.6,0.5,2.6c0,1.4-0.3,2.7-1.2,3.7c-0.8,1-2.3,1.6-3.3,1.9v0.1c1,0.1,1.7,0.4,2.3,0.8c0.6,0.4,1,0.9,1.2,1.5
			c0.3,0.6,0.4,1.2,0.5,1.9c0.1,0.7,0,1.4,0,2.1c0,0.4,0,0.8,0,1.2s0.1,0.8,0.1,1.1s0.1,0.8,0.2,1.1s0.3,0.9,0.4,0.9H406.3z
			 M428,30.1c-0.5,0.8-1.1,1.4-1.8,1.9c-0.7,0.5-1.5,0.8-2.4,1s-1.7,0.3-2.6,0.3c-1.3,0-2.4-0.1-3.5-0.4c-1.1-0.3-2.1-0.7-2.9-1.3
			c-0.8-0.6-1.5-1.2-1.9-2.2s-0.7-2.3-0.7-3.3h1.3c-0.1,1,0.1,2,0.5,2.8c0.4,0.8,1,1.4,1.7,1.9c0.7,0.5,1.5,0.9,2.5,1.1
			c1,0.2,2,0.3,3,0.3c0.6,0,1.3-0.1,2.1-0.3c0.7-0.2,1.4-0.4,2-0.8s1.1-0.9,1.5-1.5s0.6-1.4,0.6-2.3c0-0.9-0.2-1.6-0.6-2.2
			s-1-1-1.7-1.4c-0.7-0.3-1.5-0.6-2.3-0.8c-0.9-0.2-1.8-0.4-2.7-0.6c-0.9-0.2-1.8-0.4-2.7-0.6c-0.9-0.2-1.7-0.6-2.3-1
			c-0.7-0.4-1.2-0.9-1.7-1.6c-0.4-0.6-0.6-1.5-0.6-2.5s0.2-1.9,0.6-2.6c0.4-0.7,1-1.3,1.7-1.8s1.5-0.8,2.3-1
			c0.9-0.2,1.7-0.3,2.5-0.3c1.1,0,2.2,0.1,3.1,0.4c1,0.3,1.8,0.6,2.5,1.2c0.7,0.5,1.3,1,1.8,1.8c0.4,0.8,0.7,1.8,0.8,2.8h-1.3
			c0,0-0.2-1.5-0.6-2.2c-0.4-0.7-0.8-1.1-1.4-1.6c-0.6-0.5-1.3-0.7-2.1-1s-1.7-0.3-2.7-0.3c-0.6,0-1.2,0.1-1.9,0.2
			c-0.7,0.1-1.3,0.4-1.9,0.7c-0.6,0.4-1.1,0.8-1.5,1.4c-0.4,0.6-0.6,1.3-0.6,2.2c0,0.9,0.2,1.6,0.6,2.1s1,1,1.7,1.3
			c0.7,0.3,1.5,0.6,2.3,0.8c0.9,0.2,1.8,0.4,2.7,0.6c0.9,0.2,1.8,0.4,2.7,0.6c0.9,0.3,1.7,0.6,2.3,1c0.7,0.4,1.2,1,1.7,1.7
			c0.4,0.7,0.6,1.6,0.6,2.6C428.7,28.4,428.5,29.3,428,30.1z"/>
		<path class="st8" d="M405.7,19.2c0.3-0.6,0.4-1.4,0.4-2.2c0-0.8-0.2-1.5-0.5-2.1c-0.3-0.6-0.7-1-1.2-1.4c-0.5-0.4-1.1-0.9-1.7-1
			c-0.7-0.2-1.4-0.5-2.1-0.5H393v10h7.7c0.8,0,1.5-0.2,2.2-0.4s1.2-0.5,1.7-0.9C405.1,20.3,405.5,19.8,405.7,19.2z"/>
	</g>
</g>
<g id="Layer_1_copy_8" class="st0">
	<g class="st7">
		<path class="st8" d="M167,14.9c-0.8-0.9-1.7-1.6-2.8-2.2c-1.1-0.5-2.3-0.8-3.7-0.8s-2.7,0.3-3.8,0.8c-1.1,0.5-2,1.3-2.8,2.2
			c-0.8,0.9-1.3,2-1.7,3.2c-0.4,1.2-0.6,2.5-0.6,3.9c0,1.4,0.2,2.7,0.6,3.9c0.4,1.2,1,2.3,1.7,3.2c0.8,0.9,1.7,1.6,2.8,2.2
			c1.1,0.5,2.4,0.8,3.8,0.8s2.6-0.3,3.7-0.8c1.1-0.5,2-1.3,2.8-2.2c0.8-0.9,1.3-2,1.7-3.2c0.4-1.2,0.6-2.5,0.6-3.9
			c0-1.4-0.2-2.7-0.6-3.9C168.3,16.9,167.7,15.9,167,14.9z"/>
		<path class="st8" d="M295.7,14.3c-0.4-0.5-0.9-1.2-1.5-1.5c-0.6-0.3-1.5-0.8-2.6-0.8H284v10h7.4c1,0,1.8-0.1,2.4-0.4
			c0.7-0.3,1.2-0.6,1.6-1.1c0.4-0.5,0.7-1,0.9-1.5c0.2-0.6,0.3-1.1,0.3-1.7c0-0.4-0.1-0.9-0.2-1.4C296.3,15.3,296.1,14.8,295.7,14.3
			z"/>
		<path class="st8" d="M318.3,14.9c-0.8-0.9-1.7-1.6-2.8-2.2c-1.1-0.5-2.3-0.8-3.7-0.8c-1.4,0-2.7,0.3-3.8,0.8s-2,1.3-2.8,2.2
			c-0.8,0.9-1.3,2-1.7,3.2c-0.4,1.2-0.6,2.5-0.6,3.9c0,1.4,0.2,2.7,0.6,3.9s1,2.3,1.7,3.2c0.8,0.9,1.7,1.6,2.8,2.2s2.3,0.8,3.8,0.8
			c1.4,0,2.6-0.3,3.7-0.8c1.1-0.5,2-1.3,2.8-2.2c0.8-0.9,1.3-2,1.7-3.2s0.6-2.5,0.6-3.9c0-1.4-0.2-2.7-0.6-3.9
			C319.6,16.9,319.1,15.9,318.3,14.9z"/>
		<polygon class="st8" points="182.2,13 177.5,25 186.9,25 182.3,13 		"/>
		<path class="st8" d="M0,0v45h490V0H0z M145.6,29.3c-0.4,0.7-0.9,1.4-1.5,1.9s-1.4,1-2.4,1.3s-1.9,0.5-3.1,0.5H130V11h8.6
			c1.3,0,2.3,0.3,3.2,0.6c0.9,0.3,1.5,0.8,2.1,1.3c0.5,0.5,0.9,1.2,1.1,1.8c0.2,0.7,0.3,1.4,0.3,2c0,0.6-0.1,1.1-0.3,1.7
			c-0.2,0.5-0.5,1-0.9,1.4c-0.4,0.4-0.8,0.7-1.3,1c-0.5,0.3-1.1,0.4-1.7,0.5l0.1,0.1c0.1,0,0.5,0,1,0.2c0.5,0.1,1.1,0.4,1.6,0.8
			c0.6,0.4,1.1,0.9,1.5,1.6c0.4,0.7,0.7,1.6,0.7,2.7C146.1,27.7,145.9,28.6,145.6,29.3z M169.9,26.4c-0.5,1.4-1.1,2.6-2,3.6
			c-0.9,1-1.9,1.8-3.2,2.4c-1.3,0.6-2.7,0.9-4.3,0.9s-3-0.3-4.3-0.9c-1.3-0.6-2.3-1.4-3.2-2.4c-0.9-1-1.5-2.2-2-3.6
			c-0.5-1.4-0.7-2.8-0.7-4.4s0.2-3,0.7-4.4c0.5-1.4,1.1-2.6,2-3.6c0.9-1,1.9-1.8,3.2-2.4c1.3-0.6,2.7-0.9,4.3-0.9s3,0.3,4.3,0.9
			c1.3,0.6,2.3,1.4,3.2,2.4c0.9,1,1.5,2.2,2,3.6c0.5,1.4,0.7,2.8,0.7,4.4S170.4,25.1,169.9,26.4z M190,33l-2.7-7H177l-2.7,7h-1.4
			l8.6-22h1.4l8.5,22H190z M207,12h-8v21h-1V12h-7v-1h16V12z M225.4,30.1c-0.5,0.8-1.1,1.4-1.8,1.9c-0.7,0.5-1.5,0.8-2.4,1
			c-0.9,0.2-1.7,0.3-2.6,0.3c-1.3,0-2.4-0.1-3.5-0.4c-1.1-0.3-2.1-0.7-2.9-1.3c-0.8-0.6-1.5-1.2-1.9-2.2c-0.5-1-0.7-2.3-0.7-3.3h1.3
			c-0.1,1,0.1,2,0.5,2.8c0.4,0.8,1,1.4,1.7,1.9c0.7,0.5,1.5,0.9,2.5,1.1c1,0.2,2,0.3,3,0.3c0.6,0,1.3-0.1,2.1-0.3
			c0.7-0.2,1.4-0.4,2-0.8c0.6-0.4,1.1-0.9,1.5-1.5c0.4-0.6,0.6-1.4,0.6-2.3c0-0.9-0.2-1.6-0.6-2.2c-0.4-0.6-1-1-1.7-1.4
			c-0.7-0.3-1.5-0.6-2.3-0.8s-1.8-0.4-2.7-0.6c-0.9-0.2-1.8-0.4-2.7-0.6c-0.9-0.2-1.7-0.6-2.3-1c-0.7-0.4-1.2-0.9-1.6-1.6
			c-0.4-0.6-0.6-1.5-0.6-2.5s0.2-1.9,0.6-2.6c0.4-0.7,1-1.3,1.7-1.8s1.5-0.8,2.3-1c0.9-0.2,1.7-0.3,2.5-0.3c1.1,0,2.2,0.1,3.1,0.4
			c1,0.3,1.8,0.6,2.6,1.2c0.7,0.5,1.3,1,1.8,1.8s0.7,1.8,0.8,2.8h-1.3c0,0-0.2-1.5-0.6-2.2c-0.4-0.7-0.8-1.1-1.4-1.6
			c-0.6-0.5-1.3-0.7-2.1-1s-1.7-0.3-2.7-0.3c-0.6,0-1.2,0.1-1.9,0.2c-0.7,0.1-1.3,0.4-1.9,0.7c-0.6,0.4-1.1,0.8-1.5,1.4
			c-0.4,0.6-0.6,1.3-0.6,2.2c0,0.9,0.2,1.6,0.6,2.1s1,1,1.6,1.3c0.7,0.3,1.5,0.6,2.3,0.8c0.9,0.2,1.8,0.4,2.7,0.6
			c0.9,0.2,1.8,0.4,2.7,0.6c0.9,0.3,1.6,0.6,2.3,1c0.7,0.4,1.2,1,1.7,1.7c0.4,0.7,0.6,1.6,0.6,2.6C226.1,28.4,225.9,29.3,225.4,30.1
			z M243,33h-1V11h1V33z M266,33h-1.6l-13.6-20h0.2v20h-2V11h2l13.5,20h0.4V11h1V33z M296.2,21.6c-1.2,1-2.8,1.4-5,1.4H284v10h-1V11
			h8.7c0.6,0,1.3,0.2,2,0.4c0.7,0.1,1.4,0.5,2,0.9c0.6,0.4,1.2,1.1,1.6,1.9s0.6,1.8,0.6,3.1C297.9,19.1,297.4,20.6,296.2,21.6z
			 M321.3,26.4c-0.5,1.4-1.1,2.6-2,3.6c-0.9,1-1.9,1.8-3.2,2.4c-1.3,0.6-2.7,0.9-4.3,0.9c-1.6,0-3-0.3-4.3-0.9
			c-1.3-0.6-2.3-1.4-3.2-2.4c-0.9-1-1.5-2.2-2-3.6s-0.7-2.8-0.7-4.4s0.2-3,0.7-4.4c0.5-1.4,1.1-2.6,2-3.6s1.9-1.8,3.2-2.4
			c1.3-0.6,2.7-0.9,4.3-0.9c1.6,0,3,0.3,4.3,0.9c1.3,0.6,2.3,1.4,3.2,2.4s1.5,2.2,2,3.6c0.5,1.4,0.7,2.8,0.7,4.4
			S321.7,25.1,321.3,26.4z M341.6,33c-0.3-1-0.4-1.2-0.5-1.9c0-0.7,0-1.4,0-2.1s0-1.5-0.1-2.2c-0.1-0.7-0.2-1.4-0.6-1.9
			c-0.3-0.6-0.8-1-1.5-1.4c-0.7-0.3-1.7-0.5-2.9-0.5h-8v10h-1V11h9c0.9,0,1.8,0.3,2.6,0.5s1.5,0.6,2.2,1c0.6,0.4,1.1,1,1.5,1.7
			c0.3,0.7,0.5,1.6,0.5,2.6c0,1.4-0.5,2.7-1.3,3.7c-0.8,1-1.5,1.6-3.5,1.9v0.1c1,0.1,1.8,0.4,2.4,0.8c0.6,0.4,1,0.9,1.3,1.5
			c0.3,0.6,0.3,1.2,0.3,1.9c0.1,0.7-0.1,1.4-0.1,2.1c0,0.4,0,0.8,0,1.2s0.2,0.8,0.3,1.1s0.2,0.8,0.3,1.1s0.3,0.9,0.5,0.9H341.6z
			 M362,12h-7v21h-2V12h-7v-1h16V12z"/>
		<path class="st8" d="M142.7,19.8c0.9-0.8,1.4-1.9,1.4-3.2c0-0.8-0.1-1.4-0.4-2c-0.3-0.5-0.7-1-1.2-1.3c-0.5-0.3-1.1-0.8-1.7-0.9
			c-0.6-0.1-1.3-0.4-2.1-0.4H131v9h7.6C140.5,21,141.8,20.6,142.7,19.8z"/>
		<path class="st8" d="M142.8,23.1c-0.6-0.3-1.3-0.7-2-0.8c-0.7-0.1-1.4-0.3-2.1-0.3H131v10h7.6c1.9,0,3.4-0.6,4.5-1.4
			c1.1-0.8,1.6-2.1,1.6-3.7c0-0.9-0.2-1.7-0.6-2.3S143.4,23.4,142.8,23.1z"/>
		<path class="st8" d="M341,19.2c0.3-0.6,0.4-1.4,0.4-2.2c0-0.8-0.2-1.5-0.5-2.1c-0.3-0.6-0.7-1-1.2-1.4c-0.5-0.4-1.1-0.9-1.7-1
			c-0.7-0.2-1.4-0.5-2.1-0.5h-8v10h8c0.8,0,1.5-0.2,2.2-0.4s1.2-0.5,1.7-0.9C340.4,20.3,340.7,19.8,341,19.2z"/>
	</g>
</g>
<g id="Layer_1_copy_9">
	<g>
		<polygon class="st8" points="127.4,13 122.6,25 132,25 127.4,13 		"/>
		<path class="st8" d="M0,0v45h490V0H0z M90.7,29.3c-0.4,0.7-0.9,1.4-1.5,1.9s-1.4,1-2.4,1.3S84.9,33,83.8,33H75V11h8.8
			c1.3,0,2.3,0.3,3.2,0.6c0.9,0.3,1.5,0.8,2.1,1.3c0.5,0.5,0.9,1.2,1.1,1.8c0.2,0.7,0.3,1.4,0.3,2c0,0.6-0.1,1.1-0.3,1.7
			c-0.2,0.5-0.5,1-0.9,1.4c-0.4,0.4-0.8,0.7-1.3,1c-0.5,0.3-1.1,0.4-1.7,0.5l0.1,0.1c0.1,0,0.5,0,1,0.2c0.5,0.1,1.1,0.4,1.6,0.8
			c0.6,0.4,1.1,0.9,1.5,1.6c0.4,0.7,0.7,1.6,0.7,2.7C91.3,27.7,91.1,28.6,90.7,29.3z M115.1,26.4c-0.5,1.4-1.1,2.6-2,3.6
			c-0.9,1-1.9,1.8-3.2,2.4c-1.3,0.6-2.7,0.9-4.3,0.9s-3-0.3-4.3-0.9C100,31.8,99,31,98.1,30c-0.9-1-1.5-2.2-2-3.6
			c-0.5-1.4-0.7-2.8-0.7-4.4s0.2-3,0.7-4.4c0.5-1.4,1.1-2.6,2-3.6c0.9-1,1.9-1.8,3.2-2.4c1.3-0.6,2.7-0.9,4.3-0.9s3,0.3,4.3,0.9
			c1.3,0.6,2.3,1.4,3.2,2.4c0.9,1,1.5,2.2,2,3.6c0.5,1.4,0.7,2.8,0.7,4.4S115.5,25.1,115.1,26.4z M135.2,33l-2.7-7h-10.3l-2.7,7
			h-1.4l8.6-22h1.4l8.5,22H135.2z M152,12h-7v21h-2V12h-7v-1h16V12z M170.6,30.1c-0.5,0.8-1.1,1.4-1.8,1.9c-0.7,0.5-1.5,0.8-2.4,1
			c-0.9,0.2-1.7,0.3-2.6,0.3c-1.3,0-2.4-0.1-3.5-0.4c-1.1-0.3-2.1-0.7-2.9-1.3c-0.8-0.6-1.5-1.2-1.9-2.2c-0.5-1-0.7-2.3-0.7-3.3h1.3
			c-0.1,1,0.1,2,0.5,2.8c0.4,0.8,1,1.4,1.7,1.9c0.7,0.5,1.5,0.9,2.5,1.1c1,0.2,2,0.3,3,0.3c0.6,0,1.3-0.1,2.1-0.3
			c0.7-0.2,1.4-0.4,2-0.8c0.6-0.4,1.1-0.9,1.5-1.5c0.4-0.6,0.6-1.4,0.6-2.3c0-0.9-0.2-1.6-0.6-2.2c-0.4-0.6-1-1-1.7-1.4
			c-0.7-0.3-1.5-0.6-2.3-0.8s-1.8-0.4-2.7-0.6c-0.9-0.2-1.8-0.4-2.7-0.6c-0.9-0.2-1.7-0.6-2.3-1c-0.7-0.4-1.2-0.9-1.6-1.6
			c-0.4-0.6-0.6-1.5-0.6-2.5s0.2-1.9,0.6-2.6c0.4-0.7,1-1.3,1.7-1.8s1.5-0.8,2.3-1c0.9-0.2,1.7-0.3,2.5-0.3c1.1,0,2.2,0.1,3.1,0.4
			c1,0.3,1.8,0.6,2.6,1.2c0.7,0.5,1.3,1,1.8,1.8s0.7,1.8,0.8,2.8h-1.3c0,0-0.2-1.5-0.6-2.2c-0.4-0.7-0.8-1.1-1.4-1.6
			c-0.6-0.5-1.3-0.7-2.1-1s-1.7-0.3-2.7-0.3c-0.6,0-1.2,0.1-1.9,0.2c-0.7,0.1-1.3,0.4-1.9,0.7c-0.6,0.4-1.1,0.8-1.5,1.4
			c-0.4,0.6-0.6,1.3-0.6,2.2c0,0.9,0.2,1.6,0.6,2.1s1,1,1.6,1.3c0.7,0.3,1.5,0.6,2.3,0.8c0.9,0.2,1.8,0.4,2.7,0.6
			c0.9,0.2,1.8,0.4,2.7,0.6c0.9,0.3,1.6,0.6,2.3,1c0.7,0.4,1.2,1,1.7,1.7c0.4,0.7,0.6,1.6,0.6,2.6C171.3,28.4,171.1,29.3,170.6,30.1
			z M203.5,26.3c-0.4,1.3-1,2.4-1.8,3.4c-0.8,1-1.9,1.8-3.1,2.4c-1.3,0.6-2.7,0.9-4.5,0.9H187V11h7.2c1.9,0,3.5,0.5,4.8,1.1
			s2.3,1.5,3,2.5c0.8,1,1.3,2.2,1.6,3.5c0.3,1.3,0.5,2.6,0.5,4C204.1,23.5,203.9,24.9,203.5,26.3z M226,24.2c0,1.3-0.2,2.5-0.5,3.6
			c-0.3,1.1-0.8,2.1-1.4,2.9c-0.6,0.8-1.5,1.5-2.6,1.9c-1.1,0.5-2.4,0.7-4,0.7c-1.3,0-2.3-0.2-3.2-0.5s-1.6-0.7-2.2-1.2
			c-0.6-0.5-1.1-1.1-1.4-1.8c-0.3-0.7-0.6-1.3-0.8-2c-0.2-0.7-0.5-1.3-0.6-2c0-0.6-0.3-1.2-0.3-1.7V11h2v13.2c0,0.4-0.1,0.9,0,1.5
			c0,0.6,0.1,1.1,0.2,1.7s0.4,1.2,0.6,1.7c0.3,0.6,0.7,1.1,1.2,1.5c0.5,0.5,1.1,0.8,1.8,1.1c0.7,0.3,1.6,0.4,2.7,0.4
			c1.3,0,2.4-0.2,3.3-0.6c0.9-0.4,1.6-0.9,2.2-1.6c0.6-0.7,1.2-1.5,1.4-2.5c0.2-1,0.6-2.1,0.6-3.3V11h1V24.2z M246,33h-14V11h14v1
			h-13v9h12v1h-12v10h13V33z M276,12h-8v21h-1V12h-8v-1h17V12z M296.8,26.4c-0.5,1.4-1.1,2.6-2,3.6c-0.9,1-1.9,1.8-3.2,2.4
			c-1.3,0.6-2.7,0.9-4.3,0.9c-1.6,0-3-0.3-4.3-0.9c-1.3-0.6-2.3-1.4-3.2-2.4c-0.9-1-1.5-2.2-2-3.6s-0.7-2.8-0.7-4.4s0.2-3,0.7-4.4
			c0.5-1.4,1.1-2.6,2-3.6s1.9-1.8,3.2-2.4c1.3-0.6,2.7-0.9,4.3-0.9c1.6,0,3,0.3,4.3,0.9c1.3,0.6,2.3,1.4,3.2,2.4s1.5,2.2,2,3.6
			c0.5,1.4,0.7,2.8,0.7,4.4S297.3,25.1,296.8,26.4z M328,33l-2.7-7H315l-2.7,7h-1.4l8.6-22h1.4l8.5,22H328z M347.7,33
			c-0.3-1-0.4-1.2-0.5-1.9c0-0.7,0-1.4,0-2.1s0-1.5-0.1-2.2c-0.1-0.7-0.2-1.4-0.6-1.9c-0.3-0.6-0.8-1-1.5-1.4
			c-0.7-0.3-1.7-0.5-2.9-0.5H335v10h-2V11h9.1c0.9,0,1.8,0.3,2.6,0.5s1.5,0.6,2.2,1c0.6,0.4,1.1,1,1.5,1.7c0.3,0.7,0.5,1.6,0.5,2.6
			c0,1.4-0.6,2.7-1.4,3.7c-0.8,1-1.5,1.6-3.5,1.9v0.1c1,0.1,1.9,0.4,2.5,0.8c0.6,0.4,1.1,0.9,1.4,1.5c0.3,0.6,0.7,1.2,0.8,1.9
			c0.1,0.7,0.4,1.4,0.4,2.1c0,0.4,0,0.8,0,1.2s-0.2,0.8-0.2,1.1s0,0.8,0.1,1.1s0.1,0.9,0.3,0.9H347.7z M368.9,33
			c-0.3-1-0.4-1.2-0.5-1.9c0-0.7,0-1.4,0-2.1s0-1.5-0.1-2.2c-0.1-0.7-0.2-1.4-0.6-1.9c-0.3-0.6-0.8-1-1.5-1.4
			c-0.7-0.3-1.7-0.5-2.9-0.5H356v10h-2V11h9.3c0.9,0,1.8,0.3,2.6,0.5s1.5,0.6,2.2,1c0.6,0.4,1.1,1,1.5,1.7c0.3,0.7,0.5,1.6,0.5,2.6
			c0,1.4-0.6,2.7-1.4,3.7c-0.8,1-1.6,1.6-3.6,1.9v0.1c1,0.1,2,0.4,2.6,0.8c0.6,0.4,1.1,0.9,1.4,1.5c0.3,0.6,0.7,1.2,0.7,1.9
			c0.1,0.7,0.3,1.4,0.3,2.1c0,0.4,0,0.8,0,1.2s-0.1,0.8-0.1,1.1s0,0.8,0.1,1.1s0.1,0.9,0.3,0.9H368.9z M377,33h-2V11h2V33z M390,33
			h-1.5l-8-22h1.4l7.3,21h0.1l7.4-21h1.3L390,33z M416,33h-14V11h14v1h-13v9h12v1h-12v10h13V33z"/>
		<path class="st8" d="M347.2,19.2c0.3-0.6,0.4-1.4,0.4-2.2c0-0.8-0.2-1.5-0.5-2.1c-0.3-0.6-0.7-1-1.2-1.4c-0.5-0.4-1.1-0.9-1.7-1
			c-0.7-0.2-1.4-0.5-2.1-0.5H335v10h7.1c0.8,0,1.5-0.2,2.2-0.4s1.2-0.5,1.7-0.9C346.5,20.3,346.9,19.8,347.2,19.2z"/>
		<path class="st8" d="M293.8,14.9c-0.8-0.9-1.7-1.6-2.8-2.2c-1.1-0.5-2.3-0.8-3.7-0.8c-1.4,0-2.7,0.3-3.8,0.8s-2,1.3-2.8,2.2
			c-0.8,0.9-1.3,2-1.7,3.2c-0.4,1.2-0.6,2.5-0.6,3.9c0,1.4,0.2,2.7,0.6,3.9s1,2.3,1.7,3.2c0.8,0.9,1.7,1.6,2.8,2.2s2.3,0.8,3.8,0.8
			c1.4,0,2.6-0.3,3.7-0.8c1.1-0.5,2-1.3,2.8-2.2c0.8-0.9,1.3-2,1.7-3.2s0.6-2.5,0.6-3.9c0-1.4-0.2-2.7-0.6-3.9
			C295.2,16.9,294.6,15.9,293.8,14.9z"/>
		<path class="st8" d="M201.2,15.6c-0.5-0.7-1-1.3-1.6-1.7c-0.6-0.4-1.2-0.7-1.9-0.9c-0.6-0.2-1.3-0.6-1.9-0.7
			c-0.7-0.1-1.2-0.3-1.8-0.3h-5v20h5.3c1,0,2-0.3,3-0.7c1-0.3,1.9-0.9,2.7-1.7c0.8-0.7,1.5-1.8,2-3c0.5-1.2,0.8-2.8,0.8-4.7
			c0-1.5-0.1-2.7-0.4-3.8C202.1,17.2,201.7,16.3,201.2,15.6z"/>
		<polygon class="st8" points="320.2,13 315.5,25 324.9,25 320.3,13 		"/>
		<path class="st8" d="M112.1,14.9c-0.8-0.9-1.7-1.6-2.8-2.2c-1.1-0.5-2.3-0.8-3.7-0.8s-2.7,0.3-3.8,0.8c-1.1,0.5-2,1.3-2.8,2.2
			c-0.8,0.9-1.3,2-1.7,3.2c-0.4,1.2-0.6,2.5-0.6,3.9c0,1.4,0.2,2.7,0.6,3.9c0.4,1.2,1,2.3,1.7,3.2c0.8,0.9,1.7,1.6,2.8,2.2
			c1.1,0.5,2.4,0.8,3.8,0.8s2.6-0.3,3.7-0.8c1.1-0.5,2-1.3,2.8-2.2c0.8-0.9,1.3-2,1.7-3.2c0.4-1.2,0.6-2.5,0.6-3.9
			c0-1.4-0.2-2.7-0.6-3.9C113.5,16.9,112.9,15.9,112.1,14.9z"/>
		<path class="st8" d="M87.9,19.8c0.9-0.8,1.4-1.9,1.4-3.2c0-0.8-0.1-1.4-0.4-2c-0.3-0.5-0.7-1-1.2-1.3c-0.5-0.3-1.1-0.8-1.7-0.9
			c-0.6-0.1-1.3-0.4-2.1-0.4H77v9h6.8C85.6,21,87,20.6,87.9,19.8z"/>
		<path class="st8" d="M87.9,23.1c-0.6-0.3-1.3-0.7-2-0.8c-0.7-0.1-1.4-0.3-2.1-0.3H77v10h6.8c1.9,0,3.4-0.6,4.5-1.4
			c1.1-0.8,1.6-2.1,1.6-3.7c0-0.9-0.2-1.7-0.6-2.3S88.5,23.4,87.9,23.1z"/>
		<path class="st8" d="M368.3,19.2c0.3-0.6,0.4-1.4,0.4-2.2c0-0.8-0.2-1.5-0.5-2.1c-0.3-0.6-0.7-1-1.2-1.4c-0.5-0.4-1.1-0.9-1.7-1
			c-0.7-0.2-1.4-0.5-2.1-0.5H356v10h7.3c0.8,0,1.5-0.2,2.2-0.4s1.2-0.5,1.7-0.9C367.7,20.3,368,19.8,368.3,19.2z"/>
	</g>
</g>
</svg>
