<?xml version="1.0" encoding="utf-8"?>
<!-- Generator: Adobe Illustrator 19.1.0, SVG Export Plug-In . SVG Version: 6.00 Build 0)  -->
<svg version="1.1" id="Layer_1" xmlns="http://www.w3.org/2000/svg" xmlns:xlink="http://www.w3.org/1999/xlink" x="0px" y="0px"
	 viewBox="0 0 1280 800" style="enable-background:new 0 0 1280 800;" xml:space="preserve">
<style type="text/css">
	.st0{fill:none;}
	.st1{fill:#FFFFFF;}
</style>
<path class="st0" d="M655,482.9c12-2.1,23.6-7,33.4-13.9L655,435.7V482.9z"/>
<path class="st0" d="M708.4,448.9c9.5-13.5,15.2-30,15.2-47.7c0-40.9-29.6-74.9-68.6-81.7v75.9L708.4,448.9z"/>
<path class="st0" d="M557.2,401.2c0,40.9,29.8,75,68.8,81.7V319.5C587,326.2,557.2,360.3,557.2,401.2z"/>
<path class="st1" d="M437.9,219.3c4.9,4.9,11.2,7.2,16.6,6.5c13.4,7.4,15,22.2,15.2,25.2c0,0.3,0,0.5,0,0.5l4.4,4.6
	c6.6-7.6,13.8-14.7,21.4-21.4l-4.7-4.4c0,0-0.2,0-0.5,0c-2.9-0.2-17.4-1.8-24.9-14.9c0.9-5.6-1.3-12.2-6.4-17.3l-23-23
	c-7.5-7.5-18.3-8.8-24.2-3c-5.9,5.9-4.5,16.7,3,24.2L437.9,219.3z"/>
<path class="st1" d="M411.8,417.7l5.3,0.1c-0.2-3.4-0.2-6.8-0.2-10.2c0-6.7,0.3-13.4,0.9-20l-5.9,0.1c0,0-0.1,0.1-0.4,0.3
	c-2.2,1.9-13.6,11.3-28.1,7.4c-3.3-4.6-9.6-7.5-16.8-7.5H334c-10.6,0-19.2,6.2-19.2,14.5c0,8.3,8.6,14.5,19.2,14.5h32.5
	c6.9,0,13-2.6,16.4-6.9c14.8-4.2,26.4,5.2,28.6,7.1C411.7,417.4,411.8,417.7,411.8,417.7z"/>
<path class="st1" d="M625.6,172.8l-0.2,8.3c5-0.3,10.1-0.5,15.2-0.5c5.1,0,10.2,0.2,15.2,0.5l-0.2-8.3c0,0-0.1-0.1-0.3-0.4
	c-1.9-2.2-10.9-13.6-7-28.1c4.6-3.3,7.9-9.6,7.9-16.8V95c0-10.6-6.7-19.2-15-19.2c-8.3,0-15,8.6-15,19.2v32.5c0,6.9,2.7,13,7,16.4
	c4.2,14.8-5.1,26.4-7.1,28.6C625.7,172.7,625.6,172.8,625.6,172.8z"/>
<path class="st1" d="M806.7,256.3l4.5-4.7c0,0,0-0.2,0-0.5c0.2-2.9,1.8-17.7,15.2-25.2c5.4,0.6,11.7-1.6,16.6-6.5l23-23
	c7.5-7.5,8.8-18.3,3-24.2c-5.9-5.9-16.7-4.5-24.2,3l-23,23c-5.1,5.1-7.3,11.8-6.4,17.3c-7.5,13.1-22,14.7-24.9,14.9
	c-0.3,0-0.5,0-0.5,0l-5,4.8C792.7,241.7,799.9,248.7,806.7,256.3z"/>
<path class="st1" d="M946.5,387h-32.5c-7.2,0-13.5,2.9-16.8,7.5c-14.6,3.9-26-5.3-28.1-7.2c-0.2-0.2-0.4-0.4-0.4-0.4l-6.8-0.2
	c0.6,6.7,1,13.5,1,20.4c0,3.3-0.1,6.6-0.2,9.8l6-0.2c0,0,0.1-0.1,0.4-0.3c2.2-1.9,13.8-11,28.6-6.8c3.4,4.3,9.4,7.3,16.4,7.3h32.5
	c10.6,0,19.2-6.7,19.2-15C965.6,393.7,957,387,946.5,387z"/>
<path class="st1" d="M474.1,548.6l-3.9,4.1c0,0,0,0.2,0,0.5c-0.2,2.9-1.8,17.4-14.9,24.9c-5.6-0.9-12.2,1.3-17.3,6.4l-23,23
	c-7.5,7.5-8.8,18.3-3,24.2c5.9,5.9,16.7,4.5,24.2-3l23-23c4.9-4.9,7.2-11.2,6.5-16.6c7.4-13.4,22.2-15,25.2-15.2c0.3,0,0.5,0,0.5,0
	l3.8-3.6C487.6,563.5,480.6,556.2,474.1,548.6z"/>
<path class="st1" d="M845.9,584.9c-5.1-5.1-11.8-7.3-17.3-6.4c-13.1-7.5-14.7-22-14.9-24.9c0-0.3,0-0.5,0-0.5l-3.9-4.1
	c-6.6,7.6-13.7,14.8-21.3,21.4l4.1,3.9c0,0,0.2,0,0.5,0c2.9,0.2,17.7,1.8,25.2,15.2c-0.6,5.4,1.6,11.7,6.5,16.6l23,23
	c7.5,7.5,18.3,8.8,24.2,3c5.9-5.9,4.5-16.7-3-24.2L845.9,584.9z"/>
<path class="st1" d="M647.6,655.3c-3.9-14.6,5.4-26,7.3-28.1c0.2-0.2,0.4-0.4,0.4-0.4l0.1-3.6c-5.1,0.4-10.2,0.5-15.4,0.5
	c-4.9,0-9.8-0.2-14.6-0.5l0.1,3.6c0,0,0.1,0.1,0.4,0.4c1.9,2.2,11.4,13.8,7.2,28.6c-4.3,3.4-7,9.4-7,16.4v32.5
	c0,10.6,6.2,19.2,14.5,19.2c8.3,0,14.5-8.6,14.5-19.2v-32.5C655,664.9,652.2,658.6,647.6,655.3z"/>
<g>
	<path class="st0" d="M599.9,462.5c7.8,5.1,16.6,8.8,26.1,10.7v-36.8L599.9,462.5z"/>
	<path class="st0" d="M681.8,340.9c-7.9-5.4-17-9.3-26.8-11.3v38L681.8,340.9z"/>
	<path class="st0" d="M571,425c2.2,6.3,5.1,12.2,8.8,17.6l17.6-17.6H571z"/>
	<path class="st0" d="M626,329.6c-9.8,2-18.8,5.8-26.8,11.2l26.8,26.8V329.6z"/>
	<path class="st0" d="M570.9,378h25.5l-17.1-17C575.8,366.2,573,371.9,570.9,378z"/>
	<path class="st0" d="M710.1,378c-2.1-6-4.9-11.7-8.3-17l-17,17H710.1z"/>
	<path class="st0" d="M710,425h-26.3l17.5,17.5C704.9,437.2,707.9,431.3,710,425z"/>
	<path class="st1" d="M579.8,442.6c5.4,7.9,12.2,14.6,20.1,19.8l26.1-26.1v36.8c4.7,0.9,9.5,1.4,14.5,1.4c5,0,9.8-0.5,14.5-1.4
		v-36.8l26.1,26.1c8-5.3,14.8-12,20.2-19.9L683.7,425h-86.3L579.8,442.6z"/>
	<path class="st1" d="M681.8,340.9L655,367.7v-38c-4.7-0.9-9.5-1.4-14.5-1.4c-5,0-9.8,0.5-14.5,1.4v38.1l-26.8-26.8
		c-7.9,5.3-14.6,12.2-19.9,20.1l17.1,17h88.4l17-17C696.4,353.1,689.7,346.2,681.8,340.9z"/>
	<path class="st1" d="M732.3,330.4l68.8-68.8c-6.2-7.1-13-13.8-20.1-20.1l-68.7,68.7C719.8,316.2,726.5,322.9,732.3,330.4z"/>
	<path class="st1" d="M711.7,493.1l69.6,69.7c0,0,0,0,0,0c1.7-1.5,3.4-3.1,5.1-4.7c0.1-0.1,0.2-0.1,0.2-0.2c3.4-3.1,6.6-6.4,9.8-9.8
		c0.2-0.2,0.3-0.3,0.5-0.5c1.5-1.6,3-3.3,4.5-5c0,0,0,0,0,0l-69.5-69.5C725.9,480.6,719.2,487.3,711.7,493.1z"/>
	<path class="st1" d="M626,516.4v98.7c2,0.1,3.9,0.2,5.9,0.3c0.7,0,1.4,0.1,2.1,0.1c0.7,0,1.4,0,2,0.1c1.5,0,3.1,0.1,4.6,0.1
		c1.5,0,3.1,0,4.6-0.1c0.7,0,1.4,0,2-0.1c0.7,0,1.3-0.1,2-0.2c1.9-0.1,3.9-0.4,5.8-0.4c0,0,0,0,0,0v-98.6c-4.8,0.6-9.6,0.9-14.5,0.9
		C635.6,517.3,630.7,517,626,516.4z"/>
	<path class="st1" d="M568.7,310.3l-68.6-68.7c-1.7,1.5-3.4,3-5,4.6c-0.1,0.1-0.3,0.2-0.4,0.4c-3.4,3.1-6.6,6.4-9.8,9.8
		c-0.1,0.1-0.2,0.2-0.3,0.3c-1.6,1.7-3.1,3.4-4.6,5.1l68.7,68.7C554.5,322.9,561.2,316.1,568.7,310.3z"/>
	<path class="st1" d="M549.3,473.2l-69.4,69.4c1.5,1.7,3,3.4,4.5,5c0.1,0.2,0.3,0.3,0.4,0.5c3.1,3.4,6.4,6.6,9.7,9.8
		c0.1,0.1,0.1,0.1,0.2,0.2c1.7,1.6,3.4,3.1,5.1,4.7l69.5-69.6C561.9,487.3,555.1,480.6,549.3,473.2z"/>
	<path class="st1" d="M655,286.4V189c0,0,0,0,0,0c-1.9,0-3.9-0.1-5.8-0.1c-0.7,0-1.3,0-2,0c-0.7,0-1.4,0-2,0c-1.5,0-3,0-4.6,0
		c-1.5,0-3.1,0-4.6,0.1c-0.7,0-1.4,0-2,0.1c-0.7,0-1.4,0.1-2.1,0.1c-2,0.1-3.9,0.2-5.9,0.3v97c4.7-0.6,9.6-0.9,14.5-0.9
		C645.4,285.5,650.2,285.8,655,286.4z"/>
	<path class="st1" d="M640.5,474.6c-5,0-9.8-0.5-14.5-1.4v43.2c4.7,0.6,9.6,0.9,14.5,0.9c4.9,0,9.8-0.3,14.5-0.9v-43.2
		C650.3,474.1,645.5,474.6,640.5,474.6z"/>
	<polygon class="st1" points="620.4,402 597.4,425 683.7,425 660.7,402 684.8,378 596.4,378 	"/>
</g>
<path class="st1" d="M626,189v97c5-0.6,9.6-0.9,14.4-0.9c4.8,0,9.6,0.3,14.6,1v-97c-5-0.6-9.8-1-14.6-1
	C635.6,188.1,631,188.4,626,189z"/>
<path class="st1" d="M617,480.8c-29.7-8.8-52.5-33.8-58.1-64.8h33.5l14.6-14.2L592.7,387h-33.9c5.4-31.2,28.3-56.5,58.2-65.3v-24.6
	c-19.5,4.4-37.5,14.2-51.9,28.7c-16.8,16.8-27.2,38.1-30.3,61.2h-107c-0.4,5-0.5,10.1-0.5,15.3c0,4.6,0.2,9.2,0.5,13.7h107.2
	c3.2,22.9,13.6,44,30.2,60.7c14.5,14.5,32.4,24.3,51.9,28.7V480.8z"/>
<path class="st1" d="M853.5,387h-97c0.6,5,0.9,9.6,0.9,14.4c0,4.8-0.3,9.6-1,14.6h97c0.6-5,1-9.8,1-14.6
	C854.5,396.6,854.2,392,853.5,387z"/>
<path class="st1" d="M747.2,401.2c0-28.5-11.1-55.3-31.2-75.4c-16.7-16.7-38-27.2-61.1-30.3c-4.7-0.6-9.7-1-14.5-1
	c-4.8,0-9.3,0.3-14.3,0.9v24V483v24v108.2c4.8,0.3,9.7,0.5,14.6,0.5c4.8,0,9.7-0.2,14.4-0.5V506.9c18-2.5,35.6-9.6,50.3-20.9
	l76.3,76.4c7.1-6.3,13.8-13,20.1-20.2l-76.4-76.3C739.5,447.4,747.2,424.9,747.2,401.2z M708.4,448.9c-5.5,7.8-12.3,14.6-20.1,20.1
	c-9.8,6.9-21.3,11.7-33.3,13.9v-47.2v-40.3v-75.9c39,6.8,68.5,40.9,68.5,81.7C723.5,419,717.9,435.4,708.4,448.9z"/>
</svg>
