<?xml version="1.0" encoding="utf-8"?>
<!-- Generator: Adobe Illustrator 19.1.0, SVG Export Plug-In . SVG Version: 6.00 Build 0)  -->
<svg version="1.1" xmlns="http://www.w3.org/2000/svg" xmlns:xlink="http://www.w3.org/1999/xlink" x="0px" y="0px"
	 viewBox="0 0 250 200" style="enable-background:new 0 0 250 200;" xml:space="preserve">
<style type="text/css">
	.st0{display:none;}
	.st1{display:inline;fill:#FFFFFF;}
	.st2{display:inline;fill:none;}
	.st3{display:inline;}
	.st4{font-family:'HelveticaNeue-Thin';}
	.st5{font-size:60px;}
	.st6{letter-spacing:4;}
	.st7{fill:#FFFFFF;}
</style>
<g id="Layer_1" class="st0">
	<rect x="0" y="0" class="st1" width="250" height="200"/>
	<rect x="0" y="28.3" class="st2" width="250" height="75.7"/>
	<text transform="matrix(1 0 0 1 11.1509 71.1729)" class="st3 st4 st5 st6">SIGN IN</text>
</g>
<g id="Layer_2">
	<path class="st7" d="M5,4v192h240V4H5z M57,63.4c-0.8,1.3-1.8,2.3-3.1,3.2c-1.2,0.8-2.6,1.4-4.1,1.8c-1.5,0.4-3,0.5-4.4,0.5
		c-2.1,0-4.2-0.2-6-0.7c-1.9-0.5-3.5-1.2-4.9-2.2c-1.4-1-2.5-2.3-3.3-4C30.4,60.3,30,58,30,56h2.2c-0.1,2,0.2,3.7,0.9,5
		c0.7,1.4,1.6,2.5,2.8,3.4c1.2,0.9,2.6,1.5,4.3,1.9c1.6,0.4,3.4,0.6,5.2,0.6c1.1,0,2.3-0.1,3.5-0.4c1.2-0.3,2.4-0.7,3.4-1.4
		c1-0.6,1.9-1.5,2.6-2.6c0.7-1.1,1-2.4,1-4c0-1.5-0.4-2.8-1.1-3.8c-0.7-1-1.7-1.8-2.8-2.3c-1.2-0.6-2.5-1.1-4-1.4
		c-1.5-0.4-3-0.7-4.6-1c-1.5-0.3-3-0.7-4.5-1.1c-1.5-0.4-2.8-1-4-1.7c-1.2-0.7-2.1-1.6-2.8-2.7c-0.7-1.1-1.1-2.5-1.1-4.3
		c0-1.7,0.4-3.2,1.1-4.5c0.7-1.2,1.7-2.2,2.9-3c1.2-0.8,2.5-1.3,4-1.7c1.5-0.4,2.9-0.5,4.3-0.5c1.9,0,3.7,0.2,5.3,0.6
		c1.6,0.4,3.1,1.1,4.3,2c1.2,0.9,2.2,2.1,3,3.5c0.7,1.4,1.2,3.2,1.3,5.2h-2.2c-0.1-2-0.4-3-1-4.1c-0.6-1.2-1.4-2.1-2.4-2.9
		c-1-0.8-2.2-1.4-3.6-1.8c-1.4-0.4-3-0.6-4.6-0.6c-1,0-2.1,0.1-3.3,0.4c-1.2,0.2-2.3,0.7-3.3,1.2c-1,0.6-1.8,1.4-2.5,2.4
		c-0.6,1-1,2.3-1,3.8c0,1.5,0.4,2.7,1.1,3.6c0.7,0.9,1.6,1.7,2.8,2.2c1.2,0.6,2.5,1,4,1.4c1.5,0.3,3,0.7,4.5,1
		c1.6,0.3,3.1,0.7,4.6,1.1c1.5,0.4,2.8,1,4,1.7c1.2,0.7,2.1,1.7,2.8,2.9c0.7,1.2,1.1,2.6,1.1,4.4C58.2,60.5,57.8,62.1,57,63.4z
		 M69,68h-2V32h2V68z M111,68h-2v-8h0.4c-0.4,2-1.1,2.6-2,3.7c-0.9,1.1-1.9,2-3.1,2.8c-1.2,0.7-2.6,1.3-4,1.7
		c-1.5,0.4-3,0.6-4.6,0.6c-2.8,0-5.2-0.5-7.3-1.5c-2.1-1-3.9-2.3-5.4-4c-1.5-1.7-2.6-3.7-3.3-6c-0.7-2.3-1.1-4.8-1.1-7.4
		c0-2.6,0.4-5,1.1-7.4c0.8-2.3,1.9-4.4,3.3-6.1c1.5-1.8,3.3-3.2,5.4-4.2c2.1-1,4.6-1.6,7.3-1.6c1.9,0,3.7,0.3,5.4,0.8
		c1.7,0.5,3.2,1.3,4.6,2.4c1.3,1.1,2.5,2.4,3.4,3.9c0.9,1.5,1.5,3.2,1.8,5.2h-2.1c-0.9-3-2.4-5.8-4.6-7.6c-2.2-1.8-5-2.8-8.4-2.8
		c-2.4,0-4.6,0.5-6.5,1.4c-1.9,1-3.4,2.2-4.7,3.8c-1.3,1.6-2.2,3.4-2.9,5.5c-0.6,2.1-1,4.3-1,6.6c0,2.3,0.3,4.5,0.9,6.6
		c0.6,2.1,1.6,3.9,2.8,5.4c1.2,1.5,2.8,2.7,4.7,3.6c1.9,0.9,4.1,1.4,6.6,1.4c2.2,0,4.1-0.4,5.9-1.1c1.7-0.7,3.2-1.7,4.4-3
		c1.2-1.3,2.1-2.9,2.7-4.7c0.6-1.8,0.9-4.1,0.8-6.1H96v-2h15V68z M150,68h-3.1l-23.2-34h0.3v34h-3V32h3.2l23,33H147V32h3V68z
		 M180,68h-2V32h2V68z M219,68h-3.1l-23.2-34h0.3v34h-3V32h3.1l23,33H216V32h3V68z"/>
</g>
</svg>
