<?xml version="1.0" encoding="utf-8"?>
<!-- Generator: Adobe Illustrator 19.1.0, SVG Export Plug-In . SVG Version: 6.00 Build 0)  -->
<svg version="1.1" xmlns="http://www.w3.org/2000/svg" xmlns:xlink="http://www.w3.org/1999/xlink" x="0px" y="0px"
	 viewBox="0 0 490 45" style="enable-background:new 0 0 490 45;" xml:space="preserve">
<style type="text/css">
	.st0{display:none;}
	.st1{display:inline;fill:#FFFFFF;}
	.st2{display:inline;fill:none;}
	.st3{display:inline;fill:#330000;}
	.st4{font-family:'HelveticaNeue-Thin';}
	.st5{font-size:30px;}
	.st6{letter-spacing:2;}
	.st7{fill:#FFFFFF;}
</style>
<g id="Layer_1" class="st0">
	<rect x="0" y="0" class="st1" width="490" height="45"/>
	<rect y="11.3" class="st2" width="490" height="51.7"/>
	<text transform="matrix(1 0 0 1 38.4971 32.7513)" class="st3 st4 st5 st6">work orders to assign</text>
</g>
<g id="Layer_1_copy">
	<g>
		<path class="st7" d="M206.5,15.6c-0.5-0.7-1-1.3-1.6-1.7c-0.6-0.4-1.2-0.7-1.9-0.9c-0.6-0.2-1.3-0.6-1.9-0.7
			c-0.7-0.1-1.2-0.3-1.8-0.3H194v20h5.5c1,0,2-0.3,3-0.7c1-0.3,1.9-0.9,2.7-1.7c0.8-0.7,1.5-1.8,2-3c0.5-1.2,0.8-2.8,0.8-4.7
			c0-1.5-0.1-2.7-0.4-3.8C207.3,17.2,206.9,16.3,206.5,15.6z"/>
		<polygon class="st7" points="345.3,13 340.6,25 350,25 345.4,13 		"/>
		<path class="st7" d="M185.3,19.2c0.3-0.6,0.4-1.4,0.4-2.2c0-0.8-0.1-1.5-0.5-2.1c-0.3-0.6-0.7-1-1.2-1.4c-0.5-0.4-1.1-0.9-1.7-1
			c-0.7-0.2-1.4-0.5-2.1-0.5H173v10h7.2c0.8,0,1.5-0.2,2.2-0.4c0.7-0.2,1.2-0.5,1.7-0.9C184.6,20.3,185,19.8,185.3,19.2z"/>
		<path class="st7" d="M247.7,19.2c0.3-0.6,0.4-1.4,0.4-2.2c0-0.8-0.2-1.5-0.5-2.1c-0.3-0.6-0.7-1-1.2-1.4c-0.5-0.4-1.1-0.9-1.7-1
			c-0.7-0.2-1.4-0.5-2.1-0.5H235v10h7.7c0.8,0,1.5-0.2,2.2-0.4s1.2-0.5,1.7-0.9C247.1,20.3,247.4,19.8,247.7,19.2z"/>
		<path class="st7" d="M85.7,14.9c-0.8-0.9-1.7-1.6-2.8-2.2c-1.1-0.5-2.3-0.8-3.7-0.8s-2.7,0.3-3.8,0.8c-1.1,0.5-2,1.3-2.8,2.2
			c-0.8,0.9-1.3,2-1.7,3.2c-0.4,1.2-0.6,2.5-0.6,3.9c0,1.4,0.2,2.7,0.6,3.9c0.4,1.2,1,2.3,1.7,3.2c0.8,0.9,1.7,1.6,2.8,2.2
			c1.1,0.5,2.4,0.8,3.8,0.8s2.6-0.3,3.7-0.8c1.1-0.5,2-1.3,2.8-2.2c0.8-0.9,1.3-2,1.7-3.2c0.4-1.2,0.6-2.5,0.6-3.9
			c0-1.4-0.2-2.7-0.6-3.9C87,16.9,86.4,15.9,85.7,14.9z"/>
		<path class="st7" d="M0,0v45h490V0H0z M59.8,33h-1.5l-5.9-21h-0.1l-5.8,21h-1.5l-6.2-22h1.4l5.6,20h0.1l5.7-20h1.6L59,31h0.1
			l5.5-20H66L59.8,33z M88.7,26.4c-0.5,1.4-1.1,2.6-2,3.6c-0.9,1-1.9,1.8-3.2,2.4c-1.3,0.6-2.7,0.9-4.3,0.9s-3-0.3-4.3-0.9
			c-1.3-0.6-2.3-1.4-3.2-2.4c-0.9-1-1.5-2.2-2-3.6C69.2,25.1,69,23.6,69,22s0.2-3,0.7-4.4c0.5-1.4,1.1-2.6,2-3.6
			c0.9-1,1.9-1.8,3.2-2.4c1.3-0.6,2.7-0.9,4.3-0.9s3,0.3,4.3,0.9c1.3,0.6,2.3,1.4,3.2,2.4c0.9,1,1.5,2.2,2,3.6
			c0.5,1.4,0.7,2.8,0.7,4.4S89.1,25.1,88.7,26.4z M109,33c-0.3-1-0.4-1.2-0.5-1.9c0-0.7,0-1.4,0-2.1s0-1.5-0.1-2.2s-0.2-1.4-0.6-1.9
			c-0.3-0.6-0.8-1-1.5-1.4c-0.7-0.3-1.7-0.5-2.9-0.5H96v10h-2V11h9.4c0.9,0,1.8,0.3,2.6,0.5c0.8,0.2,1.5,0.6,2.2,1
			c0.6,0.4,1.1,1,1.5,1.7c0.3,0.7,0.5,1.6,0.5,2.6c0,1.4-0.2,2.7-1,3.7c-0.8,1-2.1,1.6-3.1,1.9v0.1c1,0.1,1.5,0.4,2.1,0.8
			c0.6,0.4,0.9,0.9,1.2,1.5c0.3,0.6,0.5,1.2,0.6,1.9c0.1,0.7,0.2,1.4,0.2,2.1c0,0.4,0,0.8,0,1.2s-0.1,0.8,0,1.1s0.1,0.8,0.1,1.1
			c0.1,0.3,0.2,0.9,0.3,0.9H109z M131,33l-9.6-11.7l-4.4,3.9V33h-1V11h1v12.7L130.4,11h1.7l-9.8,9.2L132.7,33H131z M165.5,26.4
			c-0.5,1.4-1.1,2.6-2,3.6c-0.9,1-1.9,1.8-3.2,2.4c-1.3,0.6-2.7,0.9-4.3,0.9s-3-0.3-4.3-0.9c-1.3-0.6-2.3-1.4-3.2-2.4
			c-0.9-1-1.5-2.2-2-3.6c-0.5-1.4-0.7-2.8-0.7-4.4s0.2-3,0.7-4.4c0.5-1.4,1.1-2.6,2-3.6c0.9-1,1.9-1.8,3.2-2.4
			c1.3-0.6,2.7-0.9,4.3-0.9s3,0.3,4.3,0.9c1.3,0.6,2.3,1.4,3.2,2.4c0.9,1,1.5,2.2,2,3.6c0.5,1.4,0.7,2.8,0.7,4.4
			S166,25.1,165.5,26.4z M185.8,33c-0.3-1-0.4-1.2-0.5-1.9c0-0.7,0-1.4,0-2.1s0-1.5-0.1-2.2s-0.2-1.4-0.6-1.9
			c-0.3-0.6-0.8-1-1.5-1.4c-0.7-0.3-1.7-0.5-2.9-0.5H173v10h-2V11h9.2c0.9,0,1.8,0.3,2.6,0.5c0.8,0.2,1.5,0.6,2.2,1
			c0.6,0.4,1.1,1,1.5,1.7c0.3,0.7,0.5,1.6,0.5,2.6c0,1.4-0.6,2.7-1.4,3.7c-0.8,1-1.6,1.6-3.6,1.9v0.1c1,0.1,2,0.4,2.5,0.8
			c0.6,0.4,1.1,0.9,1.4,1.5c0.3,0.6,0.7,1.2,0.8,1.9c0.1,0.7,0.3,1.4,0.3,2.1c0,0.4,0,0.8,0,1.2s-0.1,0.8-0.1,1.1s0,0.8,0.1,1.1
			c0.1,0.3,0.1,0.9,0.3,0.9H185.8z M208.8,26.3c-0.4,1.3-1,2.4-1.8,3.4c-0.8,1-1.9,1.8-3.1,2.4c-1.3,0.6-2.7,0.9-4.5,0.9H192V11h7.4
			c1.9,0,3.5,0.5,4.8,1.1s2.3,1.5,3,2.5c0.8,1,1.3,2.2,1.6,3.5c0.3,1.3,0.5,2.6,0.5,4C209.3,23.5,209.2,24.9,208.8,26.3z M229,33
			h-14V11h14v1h-13v9h12v1h-12v10h13V33z M248.3,33c-0.3-1-0.4-1.2-0.5-1.9c0-0.7,0-1.4,0-2.1s0-1.5-0.1-2.2
			c-0.1-0.7-0.2-1.4-0.6-1.9c-0.3-0.6-0.8-1-1.5-1.4c-0.7-0.3-1.7-0.5-2.9-0.5H235v10h-1V11h8.7c0.9,0,1.8,0.3,2.6,0.5
			s1.5,0.6,2.2,1c0.6,0.4,1.1,1,1.5,1.7c0.3,0.7,0.5,1.6,0.5,2.6c0,1.4-0.3,2.7-1.1,3.7c-0.8,1-2.3,1.6-3.3,1.9v0.1
			c1,0.1,1.7,0.4,2.3,0.8c0.6,0.4,1,0.9,1.2,1.5c0.3,0.6,0.4,1.2,0.5,1.9c0.1,0.7,0,1.4,0,2.1c0,0.4,0,0.8,0,1.2s0.1,0.8,0.1,1.1
			s0.1,0.8,0.2,1.1s0.2,0.9,0.4,0.9H248.3z M270,30.1c-0.5,0.8-1.1,1.4-1.8,1.9c-0.7,0.5-1.5,0.8-2.4,1s-1.7,0.3-2.6,0.3
			c-1.3,0-2.4-0.1-3.5-0.4c-1.1-0.3-2.1-0.7-2.9-1.3c-0.8-0.6-1.5-1.2-1.9-2.2s-0.7-2.3-0.7-3.3h1.3c-0.1,1,0.1,2,0.5,2.8
			c0.4,0.8,1,1.4,1.7,1.9c0.7,0.5,1.5,0.9,2.5,1.1c1,0.2,2,0.3,3,0.3c0.6,0,1.3-0.1,2.1-0.3c0.7-0.2,1.4-0.4,2-0.8s1.1-0.9,1.5-1.5
			s0.6-1.4,0.6-2.3c0-0.9-0.2-1.6-0.6-2.2s-1-1-1.7-1.4c-0.7-0.3-1.5-0.6-2.3-0.8c-0.9-0.2-1.8-0.4-2.7-0.6
			c-0.9-0.2-1.8-0.4-2.7-0.6c-0.9-0.2-1.7-0.6-2.3-1c-0.7-0.4-1.2-0.9-1.7-1.6c-0.4-0.6-0.6-1.5-0.6-2.5s0.2-1.9,0.6-2.6
			c0.4-0.7,1-1.3,1.7-1.8s1.5-0.8,2.3-1c0.9-0.2,1.7-0.3,2.5-0.3c1.1,0,2.2,0.1,3.1,0.4c1,0.3,1.8,0.6,2.5,1.2
			c0.7,0.5,1.3,1,1.8,1.8c0.4,0.8,0.7,1.8,0.8,2.8h-1.3c0,0-0.2-1.5-0.6-2.2c-0.4-0.7-0.8-1.1-1.4-1.6c-0.6-0.5-1.3-0.7-2.1-1
			s-1.7-0.3-2.7-0.3c-0.6,0-1.2,0.1-1.9,0.2c-0.7,0.1-1.3,0.4-1.9,0.7c-0.6,0.4-1.1,0.8-1.5,1.4c-0.4,0.6-0.6,1.3-0.6,2.2
			c0,0.9,0.2,1.6,0.6,2.1s1,1,1.7,1.3c0.7,0.3,1.5,0.6,2.3,0.8c0.9,0.2,1.8,0.4,2.7,0.6c0.9,0.2,1.8,0.4,2.7,0.6
			c0.9,0.3,1.7,0.6,2.3,1c0.7,0.4,1.2,1,1.7,1.7c0.4,0.7,0.6,1.6,0.6,2.6C270.7,28.4,270.5,29.3,270,30.1z M301,12h-8v21h-1V12h-8
			v-1h17V12z M321.9,26.4c-0.5,1.4-1.1,2.6-2,3.6c-0.9,1-1.9,1.8-3.2,2.4c-1.3,0.6-2.7,0.9-4.3,0.9c-1.6,0-3-0.3-4.3-0.9
			c-1.3-0.6-2.3-1.4-3.2-2.4c-0.9-1-1.5-2.2-2-3.6s-0.7-2.8-0.7-4.4s0.2-3,0.7-4.4c0.5-1.4,1.1-2.6,2-3.6s1.9-1.8,3.2-2.4
			c1.3-0.6,2.7-0.9,4.3-0.9c1.6,0,3,0.3,4.3,0.9c1.3,0.6,2.3,1.4,3.2,2.4s1.5,2.2,2,3.6c0.5,1.4,0.7,2.8,0.7,4.4
			S322.4,25.1,321.9,26.4z M353.1,33l-2.7-7h-10.3l-2.7,7H336l8.6-22h1.4l8.5,22H353.1z M373.4,30.1c-0.5,0.8-1.1,1.4-1.8,1.9
			c-0.7,0.5-1.5,0.8-2.4,1s-1.7,0.3-2.6,0.3c-1.3,0-2.4-0.1-3.5-0.4c-1.1-0.3-2.1-0.7-2.9-1.3c-0.8-0.6-1.5-1.2-1.9-2.2
			s-0.7-2.3-0.7-3.3h1.3c-0.1,1,0.1,2,0.5,2.8c0.4,0.8,1,1.4,1.7,1.9c0.7,0.5,1.5,0.9,2.5,1.1c1,0.2,2,0.3,3,0.3
			c0.6,0,1.3-0.1,2.1-0.3c0.7-0.2,1.4-0.4,2-0.8s1.1-0.9,1.5-1.5s0.6-1.4,0.6-2.3c0-0.9-0.2-1.6-0.6-2.2s-1-1-1.7-1.4
			c-0.7-0.3-1.5-0.6-2.3-0.8c-0.9-0.2-1.8-0.4-2.7-0.6c-0.9-0.2-1.8-0.4-2.7-0.6c-0.9-0.2-1.7-0.6-2.3-1c-0.7-0.4-1.2-0.9-1.7-1.6
			c-0.4-0.6-0.6-1.5-0.6-2.5s0.2-1.9,0.6-2.6c0.4-0.7,1-1.3,1.7-1.8s1.5-0.8,2.3-1c0.9-0.2,1.7-0.3,2.5-0.3c1.1,0,2.2,0.1,3.1,0.4
			c1,0.3,1.8,0.6,2.5,1.2c0.7,0.5,1.3,1,1.8,1.8c0.4,0.8,0.7,1.8,0.8,2.8h-1.3c0,0-0.2-1.5-0.6-2.2c-0.4-0.7-0.8-1.1-1.4-1.6
			c-0.6-0.5-1.3-0.7-2.1-1s-1.7-0.3-2.7-0.3c-0.6,0-1.2,0.1-1.9,0.2c-0.7,0.1-1.3,0.4-1.9,0.7c-0.6,0.4-1.1,0.8-1.5,1.4
			c-0.4,0.6-0.6,1.3-0.6,2.2c0,0.9,0.2,1.6,0.6,2.1s1,1,1.7,1.3c0.7,0.3,1.5,0.6,2.3,0.8c0.9,0.2,1.8,0.4,2.7,0.6
			c0.9,0.2,1.8,0.4,2.7,0.6c0.9,0.3,1.7,0.6,2.3,1c0.7,0.4,1.2,1,1.7,1.7c0.4,0.7,0.6,1.6,0.6,2.6C374.1,28.4,373.9,29.3,373.4,30.1
			z M394.6,30.1c-0.5,0.8-1.1,1.4-1.8,1.9c-0.7,0.5-1.5,0.8-2.4,1s-1.7,0.3-2.6,0.3c-1.3,0-2.4-0.1-3.5-0.4
			c-1.1-0.3-2.1-0.7-2.9-1.3c-0.8-0.6-1.5-1.2-1.9-2.2s-0.7-2.3-0.7-3.3h1.3c-0.1,1,0.1,2,0.5,2.8c0.4,0.8,1,1.4,1.7,1.9
			c0.7,0.5,1.5,0.9,2.5,1.1c1,0.2,2,0.3,3,0.3c0.6,0,1.3-0.1,2.1-0.3c0.7-0.2,1.4-0.4,2-0.8s1.1-0.9,1.5-1.5s0.6-1.4,0.6-2.3
			c0-0.9-0.2-1.6-0.6-2.2s-1-1-1.7-1.4c-0.7-0.3-1.5-0.6-2.3-0.8c-0.9-0.2-1.8-0.4-2.7-0.6c-0.9-0.2-1.8-0.4-2.7-0.6
			c-0.9-0.2-1.7-0.6-2.3-1c-0.7-0.4-1.2-0.9-1.7-1.6c-0.4-0.6-0.6-1.5-0.6-2.5s0.2-1.9,0.6-2.6c0.4-0.7,1-1.3,1.7-1.8s1.5-0.8,2.3-1
			c0.9-0.2,1.7-0.3,2.5-0.3c1.1,0,2.2,0.1,3.1,0.4c1,0.3,1.8,0.6,2.5,1.2c0.7,0.5,1.3,1,1.8,1.8c0.4,0.8,0.7,1.8,0.8,2.8h-1.3
			c0,0-0.2-1.5-0.6-2.2c-0.4-0.7-0.8-1.1-1.4-1.6c-0.6-0.5-1.3-0.7-2.1-1s-1.7-0.3-2.7-0.3c-0.6,0-1.2,0.1-1.9,0.2
			c-0.7,0.1-1.3,0.4-1.9,0.7c-0.6,0.4-1.1,0.8-1.5,1.4c-0.4,0.6-0.6,1.3-0.6,2.2c0,0.9,0.2,1.6,0.6,2.1s1,1,1.7,1.3
			c0.7,0.3,1.5,0.6,2.3,0.8c0.9,0.2,1.8,0.4,2.7,0.6c0.9,0.2,1.8,0.4,2.7,0.6c0.9,0.3,1.7,0.6,2.3,1c0.7,0.4,1.2,1,1.7,1.7
			c0.4,0.7,0.6,1.6,0.6,2.6C395.3,28.4,395,29.3,394.6,30.1z M402,33h-1V11h1V33z M427,33h-2v-5h0.3c-0.3,1-0.7,1.6-1.2,2.2
			c-0.5,0.6-1.1,1.2-1.8,1.6c-0.7,0.4-1.5,0.8-2.4,1s-1.8,0.4-2.7,0.4c-1.6,0-3.1-0.3-4.3-0.9c-1.2-0.6-2.3-1.4-3.2-2.4
			s-1.5-2.2-2-3.5c-0.4-1.3-0.7-2.8-0.7-4.3c0-1.5,0.2-3,0.7-4.3s1.1-2.6,2-3.6c0.9-1,1.9-1.9,3.2-2.5c1.2-0.6,2.7-0.9,4.3-0.9
			c1.1,0,2.2,0.2,3.2,0.5c1,0.3,1.9,0.8,2.7,1.4c0.8,0.6,1.5,1.4,2,2.3c0.5,0.9,0.9,2,1.1,3h-1.3c-0.5-2-1.4-3.4-2.7-4.4
			c-1.3-1.1-2.9-1.6-4.9-1.6c-1.4,0-2.7,0.3-3.8,0.8c-1.1,0.6-2,1.3-2.8,2.2c-0.7,0.9-1.3,2-1.7,3.3s-0.6,2.5-0.6,3.9
			c0,1.4,0.2,2.6,0.6,3.9c0.4,1.2,0.9,2.3,1.6,3.2c0.7,0.9,1.6,1.6,2.7,2.1c1.1,0.5,2.4,0.8,3.9,0.8c1.3,0,2.4-0.2,3.5-0.6
			c1-0.4,1.9-1,2.6-1.8c0.7-0.8,1.2-1.9,1.6-2.9c0.4-1.1,0.5-1.8,0.4-3.8H418v-1h9V33z M449,33h-1.6l-13.6-20h0.2v20h-2V11h2.1
			l13.5,20h0.4V11h1V33z"/>
		<path class="st7" d="M318.9,14.9c-0.8-0.9-1.7-1.6-2.8-2.2c-1.1-0.5-2.3-0.8-3.7-0.8c-1.4,0-2.7,0.3-3.8,0.8s-2,1.3-2.8,2.2
			c-0.8,0.9-1.3,2-1.7,3.2c-0.4,1.2-0.6,2.5-0.6,3.9c0,1.4,0.2,2.7,0.6,3.9s1,2.3,1.7,3.2c0.8,0.9,1.7,1.6,2.8,2.2s2.3,0.8,3.8,0.8
			c1.4,0,2.6-0.3,3.7-0.8c1.1-0.5,2-1.3,2.8-2.2c0.8-0.9,1.3-2,1.7-3.2s0.6-2.5,0.6-3.9c0-1.4-0.2-2.7-0.6-3.9
			C320.3,16.9,319.7,15.9,318.9,14.9z"/>
		<path class="st7" d="M162.5,14.9c-0.8-0.9-1.7-1.6-2.8-2.2c-1.1-0.5-2.3-0.8-3.7-0.8s-2.7,0.3-3.8,0.8c-1.1,0.5-2,1.3-2.8,2.2
			c-0.8,0.9-1.3,2-1.7,3.2c-0.4,1.2-0.6,2.5-0.6,3.9c0,1.4,0.2,2.7,0.6,3.9c0.4,1.2,1,2.3,1.7,3.2c0.8,0.9,1.7,1.6,2.8,2.2
			c1.1,0.5,2.4,0.8,3.8,0.8s2.6-0.3,3.7-0.8c1.1-0.5,2-1.3,2.8-2.2c0.8-0.9,1.3-2,1.7-3.2c0.4-1.2,0.6-2.5,0.6-3.9
			c0-1.4-0.2-2.7-0.6-3.9C163.9,16.9,163.3,15.9,162.5,14.9z"/>
		<path class="st7" d="M108.4,19.2c0.3-0.6,0.4-1.4,0.4-2.2c0-0.8-0.1-1.5-0.5-2.1c-0.3-0.6-0.7-1-1.2-1.4c-0.5-0.4-1.1-0.9-1.7-1
			c-0.7-0.2-1.4-0.5-2.1-0.5H96v10h7.4c0.8,0,1.5-0.2,2.2-0.4c0.7-0.2,1.2-0.5,1.7-0.9C107.7,20.3,108.1,19.8,108.4,19.2z"/>
	</g>
</g>
</svg>
