<?xml version="1.0" encoding="utf-8"?>
<!-- Generator: Adobe Illustrator 19.1.0, SVG Export Plug-In . SVG Version: 6.00 Build 0)  -->
<svg version="1.1" xmlns="http://www.w3.org/2000/svg" xmlns:xlink="http://www.w3.org/1999/xlink" x="0px" y="0px"
	 viewBox="0 0 490 65" style="enable-background:new 0 0 490 65;" xml:space="preserve">
<style type="text/css">
	.st0{display:none;}
	.st1{display:inline;fill:#FFFFFF;}
	.st2{display:inline;fill:none;}
	.st3{display:inline;fill:#330000;}
	.st4{font-family:'HelveticaNeue-Thin';}
	.st5{font-size:51px;}
	.st6{letter-spacing:3;}
	.st7{fill:#FFFFFF;}
</style>
<g id="Layer_2" class="st0">
	<rect x="30" class="st1" width="430" height="65"/>
</g>
<g id="Layer_1" class="st0">
	<rect x="30" y="14.3" class="st2" width="430" height="51.7"/>
	<text transform="matrix(1 0 0 1 65.1245 50.7479)" class="st3 st4 st5 st6">work order</text>
</g>
<g id="Layer_2_copy" class="st0">
</g>
<g id="Layer_1_copy">
	<g>
		<path class="st7" d="M274.9,20.5c-1.3-1.5-2.9-2.8-4.7-3.7c-1.9-0.9-4-1.4-6.3-1.4s-4.5,0.5-6.4,1.4c-1.9,0.9-3.5,2.2-4.7,3.7
			c-1.3,1.5-2.3,3.4-3,5.4c-0.7,2.1-1,4.3-1,6.6s0.3,4.6,1,6.6c0.7,2.1,1.7,3.9,3,5.4c1.3,1.5,2.9,2.8,4.7,3.7
			c1.9,0.9,4,1.4,6.4,1.4s4.5-0.5,6.3-1.4c1.9-0.9,3.4-2.1,4.7-3.7c1.3-1.5,2.3-3.4,3-5.4c0.7-2.1,1-4.3,1-6.6s-0.3-4.6-1-6.6
			C277.2,23.8,276.2,22,274.9,20.5z"/>
		<path class="st7" d="M349.6,21.7c-0.8-1.2-1.7-2.2-2.8-2.9c-1-0.7-2.1-1.2-3.2-1.6c-1.1-0.4-2.2-0.8-3.3-0.9
			c-1.1-0.1-2.1-0.4-3-0.4H328v33h9.8c1.7,0,3.4-0.3,5.1-0.8c1.7-0.5,3.3-1.4,4.7-2.7c1.4-1.2,2.5-2.9,3.4-5
			c0.9-2.1,1.3-4.7,1.3-7.9c0-2.5-0.2-4.6-0.7-6.4C351,24.3,350.4,22.9,349.6,21.7z"/>
		<path class="st7" d="M313.5,27.6c0.5-1.1,0.7-2.3,0.7-3.8c0-1.4-0.3-2.5-0.8-3.5c-0.5-1-1.2-1.8-2-2.4c-0.8-0.6-1.8-1.2-3-1.5
			c-1.1-0.3-2.3-0.6-3.5-0.6h-13v16h13c1.3,0,2.6,0,3.7-0.3c1.1-0.3,2.1-0.7,2.9-1.4C312.4,29.5,313.1,28.7,313.5,27.6z"/>
		<path class="st7" d="M144.3,20.5c-1.3-1.5-2.9-2.8-4.7-3.7c-1.9-0.9-4-1.4-6.3-1.4c-2.4,0-4.5,0.5-6.4,1.4
			c-1.9,0.9-3.5,2.2-4.7,3.7c-1.3,1.5-2.3,3.4-3,5.4c-0.7,2.1-1,4.3-1,6.6s0.3,4.6,1,6.6c0.7,2.1,1.7,3.9,3,5.4
			c1.3,1.5,2.9,2.8,4.7,3.7c1.9,0.9,4,1.4,6.4,1.4c2.4,0,4.5-0.5,6.3-1.4c1.9-0.9,3.4-2.1,4.7-3.7c1.3-1.5,2.3-3.4,3-5.4
			c0.7-2.1,1-4.3,1-6.6s-0.3-4.6-1-6.6C146.6,23.8,145.6,22,144.3,20.5z"/>
		<path class="st7" d="M182.9,27.6c0.5-1.1,0.7-2.3,0.7-3.8c0-1.4-0.3-2.5-0.8-3.5c-0.5-1-1.2-1.8-2-2.4c-0.9-0.6-1.8-1.2-3-1.5
			c-1.1-0.3-2.3-0.6-3.5-0.6H161v16h13.3c1.3,0,2.6,0,3.7-0.3c1.1-0.3,2.1-0.7,2.9-1.4C181.8,29.5,182.4,28.7,182.9,27.6z"/>
		<path class="st7" d="M0-0.1v65h490v-65H0z M100.3,50.9h-2.5l-10-35h-0.1l-9.8,35h-2.5l-10.5-37h2.3l9.5,34h0.1l9.6-34h2.8l9.8,34
			H99l9.3-34h2.4L100.3,50.9z M149.3,40c-0.8,2.3-1.9,4.4-3.4,6.1s-3.3,3.1-5.4,4.1c-2.1,1-4.6,1.5-7.3,1.5c-2.7,0-5.2-0.5-7.3-1.5
			c-2.2-1-4-2.3-5.5-4.1s-2.6-3.7-3.4-6.1c-0.8-2.3-1.2-4.8-1.2-7.5s0.4-5.1,1.2-7.5c0.8-2.3,1.9-4.4,3.4-6.1
			c1.5-1.7,3.3-3.1,5.5-4.1c2.2-1,4.6-1.5,7.3-1.5c2.7,0,5.2,0.5,7.3,1.5c2.1,1,4,2.3,5.4,4.1c1.5,1.7,2.6,3.7,3.4,6.1
			c0.8,2.3,1.2,4.8,1.2,7.5S150.1,37.7,149.3,40z M183.9,50.9c-0.5-1-0.7-1.9-0.8-3.1c-0.1-1.1-0.1-2.4-0.1-3.6
			c0-1.2-0.1-2.5-0.2-3.7c-0.1-1.2-0.4-2.3-1-3.2c-0.5-1-1.4-1.9-2.6-2.4c-1.2-0.6-2.8-1-5-1H161v17h-2v-37h15.3
			c1.6,0,3.1,0.4,4.5,0.7c1.4,0.3,2.6,1,3.7,1.7c1.1,0.7,1.9,1.7,2.5,2.9c0.6,1.2,0.9,2.7,0.9,4.5c0,2.4-0.7,4.5-2.1,6.2
			s-3.8,2.7-5.8,3.2v0.1c2,0.2,3,0.6,4,1.3c1,0.7,1.7,1.5,2.2,2.5c0.5,1,0.6,2.1,0.8,3.3c0.1,1.2,0.1,2.4,0.1,3.6c0,0.7,0,1.4,0,2.1
			c0,0.7,0.2,1.3,0.2,1.9c0.1,0.6,0.2,1.2,0.4,1.7c0.2,0.5,0.4,1.3,0.7,1.3H183.9z M221.3,50.9l-16.6-19.8l-7.7,6.8v13h-2v-37h2
			v21.4l23.2-21.4h2.9l-16.6,15.4l17.6,21.6H221.3z M280,40c-0.8,2.3-1.9,4.4-3.4,6.1c-1.5,1.7-3.3,3.1-5.4,4.1
			c-2.1,1-4.6,1.5-7.3,1.5c-2.7,0-5.2-0.5-7.3-1.5c-2.2-1-4-2.3-5.5-4.1c-1.5-1.7-2.6-3.7-3.4-6.1c-0.8-2.3-1.2-4.8-1.2-7.5
			s0.4-5.1,1.2-7.5c0.8-2.3,1.9-4.4,3.4-6.1c1.5-1.7,3.3-3.1,5.5-4.1c2.2-1,4.6-1.5,7.3-1.5c2.7,0,5.2,0.5,7.3,1.5
			c2.1,1,4,2.3,5.4,4.1c1.5,1.7,2.6,3.7,3.4,6.1c0.8,2.3,1.2,4.8,1.2,7.5S280.8,37.7,280,40z M314.5,50.9c-0.5-1-0.7-1.9-0.8-3.1
			c-0.1-1.1-0.1-2.4-0.1-3.6c0-1.2-0.1-2.5-0.2-3.7c-0.1-1.2-0.4-2.3-1-3.2c-0.5-1-1.4-1.9-2.6-2.4c-1.2-0.6-2.8-1-5-1h-13v17h-2
			v-37h15c1.6,0,3.1,0.4,4.5,0.7c1.4,0.3,2.6,1,3.7,1.7c1.1,0.7,1.9,1.7,2.5,2.9c0.6,1.2,0.9,2.7,0.9,4.5c0,2.4-0.5,4.5-1.9,6.2
			s-3.6,2.7-5.6,3.2v0.1c1,0.2,2.8,0.6,3.8,1.3c1,0.7,1.6,1.5,2.1,2.5c0.5,1,0.8,2.1,0.9,3.3c0.1,1.2,0.2,2.4,0.2,3.6
			c0,0.7,0,1.4,0,2.1c0,0.7,0,1.3,0.1,1.9c0.1,0.6,0.2,1.2,0.3,1.7c0.2,0.5,0.4,1.3,0.6,1.3H314.5z M353.5,39.7
			c-0.7,2.2-1.7,4.2-3.1,5.8c-1.4,1.6-3.2,3-5.3,3.9c-2.1,0.9-4.6,1.5-7.6,1.5H326v-37h11.7c3.3,0,6,0.7,8.1,1.8s3.9,2.5,5.2,4.2
			c1.3,1.7,2.2,3.7,2.7,5.9c0.5,2.2,0.8,4.4,0.8,6.8C354.5,35,354.2,37.5,353.5,39.7z M388,50.9h-24v-37h24v2h-22v15h21v2h-21v16h22
			V50.9z M420.7,50.9c-0.5-1-0.7-1.9-0.8-3.1c-0.1-1.1-0.1-2.4-0.1-3.6c0-1.2-0.1-2.5-0.2-3.7c-0.1-1.2-0.4-2.3-1-3.2
			c-0.5-1-1.4-1.9-2.6-2.4c-1.2-0.6-2.8-1-5-1H398v17h-2v-37h15.2c1.6,0,3.1,0.4,4.5,0.7c1.4,0.3,2.6,1,3.7,1.7
			c1.1,0.7,1.9,1.7,2.5,2.9c0.6,1.2,0.9,2.7,0.9,4.5c0,2.4-0.6,4.5-2,6.2s-3.7,2.7-5.7,3.2v0.1c2,0.2,2.9,0.6,3.9,1.3
			c1,0.7,1.7,1.5,2.1,2.5c0.5,1,0.7,2.1,0.8,3.3c0.1,1.2,0.1,2.4,0.1,3.6c0,0.7,0,1.4,0,2.1c0,0.7,0.1,1.3,0.2,1.9
			c0.1,0.6,0.2,1.2,0.4,1.7c0.2,0.5,0.4,1.3,0.7,1.3H420.7z"/>
		<path class="st7" d="M419.7,27.6c0.5-1.1,0.7-2.3,0.7-3.8c0-1.4-0.3-2.5-0.8-3.5c-0.5-1-1.2-1.8-2-2.4c-0.8-0.6-1.8-1.2-3-1.5
			c-1.1-0.3-2.3-0.6-3.5-0.6H398v16h13.2c1.3,0,2.6,0,3.7-0.3c1.1-0.3,2.1-0.7,2.9-1.4C418.6,29.5,419.2,28.7,419.7,27.6z"/>
	</g>
</g>
</svg>
